<?xml version="1.0" standalone="no"?>
<!DOCTYPE svg PUBLIC "-//W3C//DTD SVG 20010904//EN"
 "http://www.w3.org/TR/2001/REC-SVG-20010904/DTD/svg10.dtd">
<svg version="1.0" xmlns="http://www.w3.org/2000/svg"
 width="1024.000000pt" height="1024.000000pt" viewBox="0 0 1024.000000 1024.000000"
 preserveAspectRatio="xMidYMid meet">
<metadata>
Created by potrace 1.14, written by Peter Selinger 2001-2017
</metadata>
<g transform="translate(0.000000,1024.000000) scale(0.100000,-0.100000)"
fill="#000000" stroke="none">
<path d="M4018 10234 c-4 -3 -70 -10 -147 -14 -78 -5 -164 -13 -193 -19 -29
-6 -100 -17 -158 -26 -58 -8 -121 -20 -140 -25 -19 -5 -66 -16 -105 -25 -153
-36 -236 -58 -280 -76 -11 -4 -51 -17 -90 -29 -38 -12 -78 -25 -87 -31 -10 -5
-25 -9 -33 -9 -8 0 -23 -4 -33 -9 -52 -27 -153 -71 -162 -71 -6 0 -18 -4 -28
-10 -33 -18 -153 -70 -163 -70 -5 0 -9 -4 -9 -10 0 -5 -7 -10 -15 -10 -8 0
-37 -13 -63 -30 -27 -16 -54 -30 -60 -30 -6 0 -12 -3 -14 -7 -2 -7 -73 -46
-158 -88 -11 -5 -20 -13 -20 -17 0 -5 -5 -8 -10 -8 -6 0 -16 -5 -23 -10 -7 -6
-55 -38 -107 -72 -52 -34 -96 -65 -98 -70 -2 -4 -9 -8 -15 -8 -7 0 -27 -14
-45 -30 -19 -16 -47 -39 -64 -52 -16 -13 -47 -36 -67 -53 -21 -16 -50 -39 -65
-50 -135 -98 -490 -466 -615 -639 -25 -34 -50 -66 -55 -73 -29 -33 -36 -43
-36 -52 0 -5 -3 -11 -8 -13 -13 -5 -72 -85 -72 -97 0 -6 -4 -11 -9 -11 -5 0
-11 -8 -15 -17 -5 -18 -26 -54 -36 -63 -12 -11 -118 -189 -148 -250 -18 -36
-41 -78 -52 -95 -10 -16 -19 -37 -19 -47 -1 -9 -4 -18 -8 -20 -8 -3 -30 -46
-57 -110 -9 -21 -23 -53 -31 -72 -8 -19 -15 -37 -15 -40 0 -3 -12 -31 -26 -63
-36 -81 -38 -86 -74 -193 -17 -52 -35 -104 -40 -115 -5 -11 -11 -31 -14 -45
-4 -14 -14 -50 -22 -80 -38 -132 -87 -355 -100 -455 -3 -22 -13 -78 -22 -125
-14 -72 -16 -156 -16 -555 0 -431 2 -480 21 -590 12 -66 24 -131 27 -145 11
-50 28 -146 33 -190 3 -25 9 -49 13 -55 4 -5 11 -27 14 -49 4 -21 11 -46 16
-55 13 -26 40 -126 40 -149 0 -11 5 -24 10 -27 5 -3 10 -16 10 -29 0 -39 54
-103 92 -109 38 -7 111 7 116 22 2 6 8 11 13 11 5 0 37 17 71 38 35 20 77 44
93 52 17 8 32 17 35 20 10 12 111 70 120 70 6 0 10 5 10 10 0 6 6 10 14 10 8
0 21 6 28 14 8 7 24 17 36 20 12 4 22 12 22 17 0 5 5 9 10 9 6 0 47 22 91 50
44 27 82 50 85 50 2 0 33 18 69 40 36 22 70 40 75 40 6 0 10 4 10 9 0 5 8 11
17 15 10 3 32 15 48 26 17 11 37 23 45 27 8 3 50 28 92 55 43 26 80 48 82 48
3 0 32 18 65 40 33 22 67 40 76 40 8 0 15 5 15 10 0 6 4 10 9 10 6 0 30 14 54
30 25 17 50 30 56 30 6 0 11 5 11 10 0 6 5 10 11 10 6 0 69 36 140 80 71 44
131 80 134 80 3 0 34 18 70 40 36 22 70 40 75 40 6 0 10 5 10 10 0 6 4 10 10
10 5 0 67 35 137 78 71 42 140 84 155 91 39 20 88 70 93 95 2 11 7 55 10 96
12 141 24 235 39 300 18 79 39 146 49 156 4 4 7 17 7 29 0 12 8 39 19 61 10
21 35 73 55 115 19 42 51 99 71 127 19 28 35 54 35 58 0 7 46 66 95 124 82 97
260 260 283 260 6 0 12 3 14 8 12 28 261 164 353 192 22 7 49 16 60 20 85 33
265 70 336 70 35 0 78 4 96 9 74 21 415 -27 558 -79 11 -4 38 -13 60 -20 22
-7 81 -32 130 -56 149 -70 167 -69 320 28 33 21 66 38 73 38 6 0 12 5 12 10 0
6 7 10 15 10 8 0 15 4 15 9 0 5 12 14 28 21 46 19 72 34 72 42 0 5 5 8 10 8 6
0 56 28 113 63 56 35 109 67 117 71 16 7 24 12 116 69 34 20 67 37 73 37 6 0
11 5 11 10 0 6 4 10 10 10 5 0 68 36 140 80 72 44 135 80 140 80 6 0 10 5 10
10 0 6 4 10 10 10 5 0 39 18 75 40 36 22 67 40 70 40 4 0 210 125 315 190 42
26 125 70 132 70 4 0 8 5 8 10 0 6 5 10 10 10 6 0 69 36 141 80 71 44 132 80
135 80 2 0 23 14 46 30 22 17 47 30 55 30 7 0 13 3 13 8 0 4 14 13 31 21 17 8
47 29 65 47 30 29 34 38 34 85 l0 53 -162 161 c-90 88 -179 173 -200 188 -20
15 -42 33 -50 40 -33 33 -195 160 -215 170 -13 6 -23 14 -23 19 0 4 -5 8 -10
8 -6 0 -16 5 -23 10 -27 23 -164 117 -197 136 -19 10 -37 21 -40 24 -3 3 -29
17 -58 32 -78 40 -116 62 -122 70 -6 7 -81 45 -155 78 -27 12 -86 39 -130 60
-44 21 -125 55 -180 75 -55 20 -109 40 -120 46 -41 18 -204 69 -222 69 -11 0
-23 3 -27 7 -6 6 -78 26 -221 62 -40 10 -80 18 -235 46 -138 24 -148 26 -300
42 -146 16 -621 29 -632 17z m102 -281 c-134 -7 -270 -7 -270 0 0 4 73 6 163
5 89 -1 137 -3 107 -5z m423 0 c-51 -2 -135 -2 -185 0 -51 1 -10 3 92 3 102 0
143 -2 93 -3z m-717 -16 c4 -4 -29 -7 -74 -7 -48 0 -82 -4 -82 -10 0 -5 -25
-10 -55 -10 -30 0 -55 5 -55 10 0 6 21 10 48 11 26 0 65 3 86 7 50 9 123 8
132 -1z m917 -4 c-18 -2 -48 -2 -65 0 -18 2 -4 4 32 4 36 0 50 -2 33 -4z m157
-13 c0 -6 -27 -10 -60 -10 -33 0 -60 4 -60 10 0 6 27 10 60 10 33 0 60 -4 60
-10z m-1361 -14 c-9 -9 -80 -13 -85 -5 -3 5 16 9 42 9 26 0 45 -2 43 -4z
m1481 -5 c0 -8 -90 -4 -99 5 -2 2 19 4 47 4 29 0 52 -4 52 -9z m-1590 -25 c0
-8 -71 -12 -76 -4 -3 4 13 8 35 8 23 0 41 -2 41 -4z m1676 -4 c-5 -8 -66 -4
-66 4 0 2 16 4 36 4 19 0 33 -4 30 -8z m-1778 -19 c-10 -2 -28 -2 -40 0 -13 2
-5 4 17 4 22 1 32 -1 23 -4z m1866 -1 c3 -5 18 -7 34 -4 16 2 33 -1 36 -7 9
-14 -56 -15 -69 -2 -6 5 -28 11 -50 14 l-40 4 42 1 c23 1 44 -2 47 -6z m-1939
-12 c-3 -5 -20 -10 -36 -10 -18 0 -28 4 -24 10 3 6 20 10 36 10 18 0 28 -4 24
-10z m-80 -20 c-3 -5 -15 -10 -26 -10 -10 0 -19 5 -19 10 0 6 12 10 26 10 14
0 23 -4 19 -10z m2170 0 c-8 -13 -35 -13 -55 0 -11 7 -5 10 23 10 23 0 36 -4
32 -10z m-2241 -16 c22 -9 10 -24 -20 -24 -23 0 -31 10 -17 23 8 9 17 9 37 1z
m2316 -15 c0 -4 10 -10 23 -12 12 -2 9 -2 -8 0 -16 2 -40 5 -52 6 -25 2 -30
13 -10 20 16 5 47 -3 47 -14z m-2382 -16 c-10 -2 -26 -2 -35 0 -10 3 -2 5 17
5 19 0 27 -2 18 -5z m-58 -13 c0 -5 -9 -10 -21 -10 -11 0 -30 -5 -41 -11 -14
-8 -23 -8 -31 0 -8 8 -4 11 14 11 13 0 31 5 39 10 20 13 40 13 40 0z m2550 -6
c0 -2 -9 -4 -21 -4 -11 0 -18 4 -14 10 5 8 35 3 35 -6z m50 -14 c0 -5 -9 -10
-20 -10 -11 0 -20 5 -20 10 0 6 9 10 20 10 11 0 20 -4 20 -10z m-2716 -25 c-6
-15 -64 -30 -86 -22 -7 3 1 6 18 6 19 1 34 7 38 16 3 8 12 15 20 15 9 0 13 -6
10 -15z m2767 0 c-1 -15 -24 -12 -29 3 -3 9 2 13 12 10 10 -1 17 -7 17 -13z
m62 -22 c-7 -2 -21 -2 -30 0 -10 3 -4 5 12 5 17 0 24 -2 18 -5z m97 -35 c0 -4
-9 -8 -20 -8 -11 0 -20 5 -20 10 0 6 -9 10 -20 10 -11 0 -20 4 -20 9 0 4 18 3
40 -2 22 -6 40 -15 40 -19z m-3027 15 c-7 -2 -19 -2 -25 0 -7 3 -2 5 12 5 14
0 19 -2 13 -5z m-53 -13 c0 -5 -7 -10 -15 -10 -8 0 -15 5 -15 10 0 6 7 10 15
10 8 0 15 -4 15 -10z m-40 -14 c0 -11 -19 -15 -25 -6 -3 5 1 10 9 10 9 0 16
-2 16 -4z m3160 -6 c0 -5 -7 -7 -15 -4 -8 4 -15 8 -15 10 0 2 7 4 15 4 8 0 15
-4 15 -10z m50 -26 c0 -2 -9 -4 -21 -4 -11 0 -18 4 -14 10 5 8 35 3 35 -6z
m-3257 -1 c-7 -2 -19 -2 -25 0 -7 3 -2 5 12 5 14 0 19 -2 13 -5z m-40 -20 c-7
-2 -19 -2 -25 0 -7 3 -2 5 12 5 14 0 19 -2 13 -5z m3330 0 c-7 -2 -19 -2 -25
0 -7 3 -2 5 12 5 14 0 19 -2 13 -5z m-3373 -13 c0 -5 -9 -10 -19 -10 -11 0
-23 -4 -26 -10 -7 -12 -25 -13 -25 -2 0 8 38 29 58 31 6 0 12 -3 12 -9z m3420
0 c0 -5 -7 -10 -15 -10 -8 0 -15 5 -15 10 0 6 7 10 15 10 8 0 15 -4 15 -10z
m50 -20 c0 -5 -6 -10 -14 -10 -8 0 -18 5 -21 10 -3 6 3 10 14 10 12 0 21 -4
21 -10z m-3576 -35 c-10 -8 -25 -15 -31 -15 -7 0 -13 -4 -13 -10 0 -5 -9 -10
-19 -10 -11 0 -23 -4 -26 -10 -7 -12 -25 -13 -25 -2 0 4 21 16 48 26 26 11 53
26 61 33 7 8 16 11 19 8 3 -3 -3 -12 -14 -20z m3616 4 c0 -5 -9 -9 -20 -9 -22
0 -27 16 -7 23 15 5 27 -1 27 -14z m37 -15 c-3 -3 -12 -4 -19 -1 -8 3 -5 6 6
6 11 1 17 -2 13 -5z m28 -14 c3 -5 -1 -10 -10 -10 -9 0 -13 5 -10 10 3 6 8 10
10 10 2 0 7 -4 10 -10z m35 -20 c0 -5 -2 -10 -4 -10 -3 0 -8 5 -11 10 -3 6 -1
10 4 10 6 0 11 -4 11 -10z m-3840 -19 c0 -6 -4 -13 -10 -16 -5 -3 -10 1 -10 9
0 9 5 16 10 16 6 0 10 -4 10 -9z m3880 -12 c0 -5 -4 -9 -10 -9 -5 0 -10 7 -10
16 0 8 5 12 10 9 6 -3 10 -10 10 -16z m-3917 -16 c-7 -2 -19 -2 -25 0 -7 3 -2
5 12 5 14 0 19 -2 13 -5z m3961 -2 c3 -5 18 -12 32 -15 15 -4 34 -14 42 -23
15 -14 14 -15 -8 -8 -14 4 -26 12 -28 16 -2 5 -12 9 -23 9 -10 0 -19 4 -19 9
0 5 -8 12 -17 14 -16 4 -16 5 -1 6 9 0 19 -3 22 -8z m-4006 -18 c-10 -2 -18
-9 -18 -14 0 -5 -7 -9 -15 -9 -8 0 -15 4 -15 9 0 10 24 19 50 19 10 0 9 -2 -2
-5z m-83 -53 c3 -6 -4 -10 -17 -10 -18 0 -20 2 -8 10 19 12 18 12 25 0z m4210
0 c3 -5 -1 -10 -9 -10 -9 0 -16 5 -16 10 0 6 4 10 9 10 6 0 13 -4 16 -10z
m-4259 -35 c-16 -17 -36 -20 -36 -6 0 10 17 19 38 20 10 1 10 -3 -2 -14z
m4314 5 c8 -5 11 -12 7 -17 -5 -4 -11 -3 -15 3 -4 6 -14 14 -22 17 -13 5 -13
5 0 6 8 0 22 -3 30 -9z m-4376 -45 c-9 -13 -25 -27 -36 -31 -32 -10 -32 3 1
22 17 10 31 22 31 26 0 4 5 8 10 8 6 0 3 -11 -6 -25z m2784 18 c-32 -2 -84 -2
-115 0 -32 2 -6 3 57 3 63 0 89 -1 58 -3z m1635 -7 c4 -10 1 -13 -9 -9 -7 3
-14 9 -14 14 0 14 17 10 23 -5z m-1906 -11 c-2 -6 -48 -10 -108 -11 -57 -1
-88 1 -69 3 19 2 39 9 44 14 13 12 137 7 133 -6z m537 6 c6 -5 25 -11 41 -14
17 -2 -25 -5 -92 -6 -93 -1 -123 2 -123 12 0 15 156 23 174 8z m1416 -34 c11
-5 9 -6 -4 -4 -11 1 -21 9 -23 17 -3 10 -2 11 4 4 4 -6 15 -14 23 -17z m-2205
3 c4 -6 -19 -10 -62 -10 -48 0 -63 3 -53 10 20 13 107 13 115 0z m1005 0 c10
-7 -7 -10 -58 -10 -46 0 -71 4 -67 10 8 13 105 13 125 0z m-1150 -20 c-20 -13
-110 -13 -110 0 0 6 27 10 63 10 44 0 58 -3 47 -10z m1294 1 c5 -8 128 -24
179 -22 42 1 28 -23 -15 -27 -21 -2 -41 3 -50 11 -9 10 -49 17 -116 22 -109 8
-149 25 -58 25 30 0 57 -4 60 -9z m1116 -22 c0 -4 -11 -2 -24 4 -13 7 -22 15
-20 19 5 8 44 -13 44 -23z m-2574 4 c-27 -2 -55 -11 -63 -19 -19 -19 -73 -19
-73 0 0 16 42 23 135 22 l50 0 -49 -3z m-2086 -33 c-6 -11 -18 -20 -27 -20
-12 0 -11 4 7 20 13 11 25 20 27 20 2 0 -1 -9 -7 -20z m1935 -10 c4 -6 -11
-10 -37 -10 -31 0 -39 3 -28 10 20 13 57 13 65 0z m1875 0 c11 -7 7 -10 -18
-10 -20 0 -31 4 -27 10 8 13 26 13 45 0z m926 -28 c-6 -5 -36 23 -36 34 0 4 9
-1 20 -11 11 -10 18 -20 16 -23z m-2891 9 c-6 -5 -35 -11 -65 -14 -30 -2 -44
-2 -30 0 14 3 29 9 35 14 5 5 23 9 39 9 18 0 26 -4 21 -9z m2055 -1 c0 -5 19
-10 42 -10 23 0 39 -3 35 -6 -9 -9 -147 7 -147 17 0 5 16 9 35 9 19 0 35 -4
35 -10z m-3970 -20 c0 -5 -2 -10 -4 -10 -3 0 -8 5 -11 10 -3 6 -1 10 4 10 6 0
11 -4 11 -10z m4840 0 c0 -5 -2 -10 -4 -10 -3 0 -8 5 -11 10 -3 6 -1 10 4 10
6 0 11 -4 11 -10z m-3056 -9 c8 -12 -29 -21 -56 -13 -21 5 -21 6 -2 13 27 11
52 11 58 0z m2319 -1 c8 0 8 -3 0 -11 -13 -13 -56 -2 -47 12 3 6 13 8 21 5 8
-3 20 -6 26 -6z m-4153 -30 c0 -5 -5 -10 -11 -10 -5 0 -7 5 -4 10 3 6 8 10 11
10 2 0 4 -4 4 -10z m1760 0 c0 -5 -11 -10 -25 -10 -14 0 -25 5 -25 10 0 6 11
10 25 10 14 0 25 -4 25 -10z m2455 0 c3 -5 -3 -10 -14 -10 -12 0 -21 5 -21 10
0 6 6 10 14 10 8 0 18 -4 21 -10z m749 -16 c7 -17 -6 -18 -22 -2 -7 7 -12 15
-12 20 0 12 28 -2 34 -18z m-3274 -3 c0 -9 -43 -20 -87 -23 -13 -1 -23 -6 -23
-10 0 -4 -11 -8 -24 -8 -13 0 -26 -7 -30 -15 -3 -8 -15 -15 -26 -15 -19 0 -20
2 -6 15 8 8 29 18 46 21 17 4 33 11 36 15 3 5 18 9 34 9 16 0 32 5 35 10 8 12
45 13 45 1z m2590 -1 c0 -5 11 -10 25 -10 38 0 134 -32 139 -47 3 -8 -2 -13
-14 -13 -12 0 -20 7 -20 16 0 9 -6 14 -12 11 -7 -2 -24 0 -38 6 -14 5 -29 11
-35 12 -66 11 -95 19 -95 26 0 5 11 9 25 9 14 0 25 -4 25 -10z m-4320 -13
c-14 -8 -27 -12 -30 -10 -7 6 23 23 40 23 8 0 4 -6 -10 -13z m5045 -26 c-6 -5
-25 10 -25 20 0 5 6 4 14 -3 8 -7 12 -15 11 -17z m-5115 -36 c0 -8 -7 -15 -15
-15 -13 0 -14 3 -3 15 16 18 18 18 18 0z m5170 -8 c11 -5 9 -6 -4 -4 -11 1
-21 9 -23 17 -3 10 -2 11 4 4 4 -6 15 -14 23 -17z m-3585 3 c4 -6 -5 -10 -19
-10 -14 0 -26 5 -26 10 0 6 9 10 19 10 11 0 23 -4 26 -10z m3015 0 c0 -5 -7
-10 -15 -10 -8 0 -15 5 -15 10 0 6 7 10 15 10 8 0 15 -4 15 -10z m-3070 -19
c0 -5 -19 -12 -42 -16 -24 -4 -48 -14 -54 -23 -6 -8 -16 -12 -22 -8 -23 14
-11 25 33 32 25 3 45 10 45 15 0 5 9 9 20 9 11 0 20 -4 20 -9z m3130 0 c0 -5
10 -12 23 -14 12 -2 7 -3 -12 -1 -40 4 -68 24 -33 24 12 0 22 -4 22 -9z m545
-11 c3 -6 -1 -7 -9 -4 -18 7 -21 14 -7 14 6 0 13 -4 16 -10z m-455 -31 c0 -11
-27 -12 -34 0 -3 4 -3 11 0 14 8 8 34 -3 34 -14z m-3350 -19 c0 -5 -9 -10 -21
-10 -11 0 -17 5 -14 10 3 6 13 10 21 10 8 0 14 -4 14 -10z m3418 -11 c112 -50
109 -49 85 -49 -13 0 -23 5 -23 10 0 6 -8 10 -17 10 -10 0 -31 7 -47 15 -15 8
-35 15 -42 15 -8 0 -14 5 -14 10 0 14 3 13 58 -11z m-4948 -19 c-24 -15 -36
-11 -14 4 10 8 21 12 24 10 2 -3 -2 -9 -10 -14z m1480 10 c0 -5 -17 -12 -37
-16 -21 -4 -44 -13 -51 -21 -8 -7 -19 -10 -25 -6 -6 4 4 13 24 21 19 8 41 18
49 23 21 11 40 11 40 -1z m3945 -19 c-6 -5 -25 10 -25 20 0 5 6 4 14 -3 8 -7
12 -15 11 -17z m32 -28 c2 -6 -5 -14 -16 -18 -12 -3 -21 -10 -21 -15 0 -5 -13
-11 -30 -15 -16 -4 -30 -11 -30 -16 0 -5 -10 -8 -22 -8 -17 1 -19 2 -5 6 9 2
17 9 17 14 0 5 9 9 20 9 11 0 20 4 20 9 0 5 12 12 26 15 18 5 24 12 20 22 -4
10 -1 14 6 12 6 -2 13 -9 15 -15z m-5547 -50 c-22 -22 -40 -44 -40 -49 0 -5
-9 -17 -20 -27 -11 -9 -20 -14 -20 -11 0 9 61 85 89 112 42 39 34 16 -9 -25z
m1440 37 c0 -5 -4 -10 -10 -10 -5 0 -10 5 -10 10 0 6 5 10 10 10 6 0 10 -4 10
-10z m3753 -6 c21 -8 23 -24 2 -24 -8 0 -15 5 -15 10 0 6 -7 10 -15 10 -8 0
-15 5 -15 11 0 6 6 8 13 5 6 -3 20 -9 30 -12z m-3783 -12 c0 -4 -23 -16 -51
-27 -28 -11 -55 -26 -61 -32 -14 -18 -29 -16 -22 1 3 8 19 18 35 21 16 4 29
11 29 16 0 5 9 9 20 9 11 0 20 5 20 10 0 6 7 10 15 10 8 0 15 -4 15 -8z m3850
-22 c0 -5 6 -10 13 -10 8 0 24 -9 37 -20 18 -15 19 -20 7 -20 -9 0 -20 6 -24
13 -4 6 -24 20 -43 29 -29 14 -31 17 -12 17 12 1 22 -3 22 -9z m140 -35 c0 -8
-4 -15 -10 -15 -5 0 -7 7 -4 15 4 8 8 15 10 15 2 0 4 -7 4 -15z m-4140 -25 c0
-5 -4 -10 -10 -10 -5 0 -10 5 -10 10 0 6 5 10 10 10 6 0 10 -4 10 -10z m4110
0 c0 -5 -9 -10 -21 -10 -11 0 -17 5 -14 10 3 6 13 10 21 10 8 0 14 -4 14 -10z
m-4153 -23 c-10 -7 -28 -20 -39 -29 -27 -23 -41 -23 -27 0 13 20 45 39 69 40
11 1 10 -2 -3 -11z m-1335 -48 c-25 -32 -66 -69 -74 -69 -9 0 75 89 84 90 4 0
0 -10 -10 -21z m1248 -9 c0 -5 -6 -10 -14 -10 -8 0 -16 -6 -19 -12 -2 -7 -8
-10 -12 -5 -5 4 0 14 11 22 23 17 34 19 34 5z m-80 -50 c-12 -11 -27 -17 -33
-13 -5 3 1 12 14 19 36 20 45 17 19 -6z m-1264 -45 c-9 -9 -16 -13 -16 -8 0
12 22 34 28 28 2 -2 -3 -11 -12 -20z m1201 0 c-9 -8 -19 -15 -23 -15 -4 0 -18
-10 -31 -22 -13 -12 -26 -19 -29 -15 -8 7 20 37 35 37 6 0 11 3 11 8 0 8 42
30 49 25 2 -1 -4 -9 -12 -18z m-1237 -50 c-7 -8 -17 -15 -22 -15 -11 0 14 29
26 30 5 0 3 -7 -4 -15z m1124 -30 c-4 -8 -12 -15 -20 -15 -8 0 -14 -4 -14 -10
0 -5 -11 -12 -25 -16 -14 -3 -25 -12 -25 -20 0 -8 -7 -14 -15 -14 -26 0 -16
28 12 35 15 3 30 10 33 14 5 7 52 41 57 41 1 0 0 -7 -3 -15z m-1204 -75 c-6
-11 -16 -20 -23 -19 -9 0 -9 2 1 6 6 2 12 11 12 19 0 8 5 14 10 14 7 0 7 -6 0
-20z m1074 -24 c-10 -8 -21 -12 -24 -10 -5 6 21 24 34 24 6 0 1 -6 -10 -14z
m-1104 -10 c0 -3 -4 -8 -10 -11 -5 -3 -10 -1 -10 4 0 6 5 11 10 11 6 0 10 -2
10 -4z m1034 -45 c-22 -22 -41 -37 -44 -34 -3 2 3 10 13 17 9 7 17 17 17 21 0
9 31 34 44 35 4 0 -9 -18 -30 -39z m-1077 -23 c-3 -8 -6 -5 -6 6 -1 11 2 17 5
13 3 -3 4 -12 1 -19z m-7 -28 c0 -5 -7 -10 -15 -10 -8 0 -15 5 -15 10 0 6 7
10 15 10 8 0 15 -4 15 -10z m1024 -3 c-2 -7 -18 -21 -34 -31 -25 -14 -29 -14
-24 -2 3 8 14 18 25 21 10 4 19 11 19 16 0 5 4 9 10 9 5 0 7 -6 4 -13z m-1061
-34 c-7 -3 -13 -11 -13 -19 0 -8 -4 -14 -10 -14 -5 0 -10 -7 -10 -17 0 -9 -3
-14 -6 -10 -3 3 2 24 12 46 13 27 22 36 29 29 7 -7 6 -12 -2 -15z m975 -44
c-51 -44 -128 -121 -128 -129 0 -4 -7 -10 -14 -13 -10 -4 -13 -1 -9 9 3 7 9
14 14 14 5 0 9 7 9 15 0 8 3 15 8 15 9 0 72 56 72 65 0 10 28 35 39 35 6 0 11
5 11 11 0 5 5 7 10 4 7 -4 2 -14 -12 -26z m-1021 -35 c-3 -3 -12 -4 -19 -1 -8
3 -5 6 6 6 11 1 17 -2 13 -5z m-27 -28 c0 -3 -4 -8 -10 -11 -5 -3 -10 -1 -10
4 0 6 5 11 10 11 6 0 10 -2 10 -4z m-44 -81 c-7 -27 -26 -35 -26 -10 0 8 5 15
10 15 6 0 10 8 10 17 0 9 3 14 6 10 4 -3 4 -18 0 -32z m894 -50 c-36 -38 -64
-50 -30 -13 11 12 20 25 20 30 0 4 7 8 15 8 8 0 15 5 15 12 0 6 3 8 7 5 4 -4
-9 -23 -27 -42z m-943 -25 c-12 -32 -27 -40 -27 -15 0 8 5 15 10 15 6 0 10 7
10 15 0 8 4 15 9 15 5 0 4 -13 -2 -30z m-30 -62 c-3 -8 -6 -5 -6 6 -1 11 2 17
5 13 3 -3 4 -12 1 -19z m878 -15 c-10 -15 -35 -45 -57 -67 -21 -22 -38 -47
-38 -55 0 -11 -3 -12 -11 -4 -12 12 3 34 59 86 17 17 32 36 32 43 0 10 11 19
29 23 2 1 -5 -11 -14 -26z m-904 -46 c-6 -15 -15 -27 -21 -27 -5 0 -10 -7 -10
-15 0 -8 -4 -15 -10 -15 -14 0 -13 19 3 35 30 34 37 45 38 57 0 8 2 9 5 2 3
-6 0 -23 -5 -37z m-54 -89 c-3 -8 -6 -5 -6 6 -1 11 2 17 5 13 3 -3 4 -12 1
-19z m-23 -67 c-4 -23 -11 -40 -17 -38 -18 6 -19 24 -2 40 8 9 15 23 15 33 0
10 2 15 5 12 3 -3 3 -24 -1 -47z m838 27 c-7 -7 -12 -8 -12 -2 0 14 12 26 19
19 2 -3 -1 -11 -7 -17z m-27 -37 c-3 -12 -11 -21 -16 -21 -5 0 -9 -6 -9 -13 0
-17 -37 -39 -45 -27 -3 6 1 10 9 10 9 0 16 6 16 13 0 7 9 19 20 27 11 8 20 21
20 29 0 8 3 12 6 8 3 -3 3 -15 -1 -26z m-845 -50 c0 -6 -4 -13 -10 -16 -5 -3
-10 1 -10 9 0 9 5 16 10 16 6 0 10 -4 10 -9z m-23 -53 c-3 -8 -6 -5 -6 6 -1
11 2 17 5 13 3 -3 4 -12 1 -19z m777 -17 c-18 -31 -34 -40 -34 -21 0 6 5 10
10 10 6 0 10 5 10 10 0 12 23 40 28 35 2 -2 -4 -17 -14 -34z m-797 -33 c-3 -7
-5 -2 -5 12 0 14 2 19 5 13 2 -7 2 -19 0 -25z m-7 -39 c0 -5 -4 -9 -10 -9 -5
0 -10 7 -10 16 0 8 5 12 10 9 6 -3 10 -10 10 -16z m750 2 c0 -5 -9 -19 -20
-32 -16 -20 -19 -21 -20 -6 0 9 5 17 10 17 6 0 10 7 10 15 0 8 5 15 10 15 6 0
10 -4 10 -9z m-780 -56 c0 -8 -4 -15 -10 -15 -5 0 -10 7 -10 15 0 8 5 15 10
15 6 0 10 -7 10 -15z m740 -20 c0 -8 -4 -15 -10 -15 -5 0 -10 -7 -10 -17 0 -9
-2 -14 -5 -11 -9 8 6 58 16 58 5 0 9 -7 9 -15z m-760 -34 c0 -11 -4 -23 -10
-26 -5 -3 -10 -18 -10 -32 0 -15 -3 -24 -6 -21 -8 9 7 98 17 98 5 0 9 -9 9
-19z m688 -73 c-18 -35 -36 -64 -40 -66 -5 -2 -8 -10 -8 -18 0 -8 -7 -14 -16
-14 -10 0 -14 -6 -11 -15 4 -8 2 -17 -3 -20 -19 -12 -10 31 10 48 11 9 20 24
20 32 0 8 5 15 10 15 6 0 10 9 10 20 0 11 5 20 10 20 6 0 10 7 10 15 0 8 5 15
10 15 6 0 10 7 10 15 0 8 5 15 10 15 6 0 -4 -28 -22 -62z m-730 -66 c-4 -2 -8
-15 -8 -28 0 -15 -6 -24 -15 -24 -8 0 -15 5 -15 11 0 6 7 17 15 25 8 9 15 27
16 42 l1 27 7 -25 c4 -14 4 -26 -1 -28z m-38 -96 c0 -14 -4 -28 -10 -31 -6 -4
-10 7 -10 24 0 17 5 31 10 31 6 0 10 -11 10 -24z m676 2 c-3 -7 -9 -21 -12
-30 -8 -22 -24 -24 -24 -3 0 8 5 15 10 15 6 0 10 7 10 15 0 8 5 15 11 15 6 0
8 -6 5 -12z m-699 -105 c-3 -10 -5 -2 -5 17 0 19 2 27 5 18 2 -10 2 -26 0 -35z
m663 37 c0 -5 -2 -10 -4 -10 -3 0 -8 5 -11 10 -3 6 -1 10 4 10 6 0 11 -4 11
-10z m-27 -57 c-3 -7 -9 -13 -14 -13 -5 0 -9 -8 -10 -17 0 -11 -3 -13 -6 -5
-7 17 20 74 28 60 4 -6 5 -17 2 -25z m-659 -82 c-4 -20 -6 -44 -5 -53 3 -25
-16 -22 -22 3 -6 24 1 49 14 49 5 0 10 19 10 43 1 25 4 33 6 18 3 -13 1 -40
-3 -60z m626 9 c0 -11 -4 -20 -10 -20 -5 0 -10 -7 -10 -15 0 -8 -4 -15 -9 -15
-4 0 -3 16 3 35 12 38 26 46 26 15z m-42 -81 c-2 -6 -8 -10 -13 -10 -5 0 -11
4 -13 10 -2 6 4 11 13 11 9 0 15 -5 13 -11z m-618 -56 c0 -21 -5 -45 -10 -53
-7 -11 -10 0 -10 38 0 28 5 52 10 52 6 0 10 -17 10 -37z m586 -12 c-6 -22 -15
-43 -19 -47 -4 -4 -7 -16 -7 -26 0 -10 -4 -18 -10 -18 -5 0 -10 6 -10 14 0 8
5 18 10 21 6 3 10 17 10 31 0 13 5 24 10 24 6 0 10 12 10 26 0 14 4 23 9 20 5
-4 4 -23 -3 -45z m-606 -106 c0 -25 -4 -45 -8 -45 -7 0 -8 24 -3 78 1 6 3 12
6 12 3 0 5 -20 5 -45z m560 -15 c0 -11 -7 -20 -15 -20 -18 0 -19 12 -3 28 16
16 18 15 18 -8z m-29 -67 c-9 -16 -10 -14 -11 12 0 21 3 26 11 18 8 -8 8 -16
0 -30z m-558 -122 c-4 -3 -8 -53 -8 -109 0 -57 -3 -109 -7 -115 -4 -7 -8 41
-8 105 0 67 4 119 10 123 6 3 11 36 12 73 l2 67 3 -69 c2 -38 0 -72 -4 -75z
m538 72 c-9 -16 -10 -14 -11 12 0 21 3 26 11 18 8 -8 8 -16 0 -30z m-11 -48
c0 -14 -4 -25 -10 -25 -5 0 -10 11 -10 25 0 14 5 25 10 25 6 0 10 -11 10 -25z
m-24 -83 c-12 -11 -18 7 -10 30 l8 23 4 -23 c2 -13 1 -26 -2 -30z m-16 -39 c0
-6 -6 -18 -12 -25 -7 -7 -14 -24 -16 -38 -2 -14 -6 -44 -9 -67 -3 -24 -9 -40
-14 -37 -12 7 -12 49 0 72 5 9 15 43 22 75 8 37 15 53 21 45 4 -7 8 -18 8 -25z
m-520 -348 c0 -99 -5 -187 -10 -195 -6 -10 -10 56 -10 195 0 139 4 205 10 195
5 -8 10 -96 10 -195z m456 107 c-12 -11 -17 7 -9 34 l8 29 3 -28 c2 -16 1 -31
-2 -35z m-16 -57 c0 -36 -17 -39 -22 -5 -3 17 -2 32 0 35 10 9 22 -7 22 -30z
m-34 -147 c-6 -53 -14 -100 -18 -104 -5 -4 -8 -34 -8 -66 0 -41 -3 -57 -11
-52 -11 7 -9 36 12 169 5 33 12 84 15 113 4 29 10 50 14 45 4 -4 2 -52 -4
-105z m-379 -273 c2 -67 -1 -116 -7 -120 -6 -4 -10 37 -10 114 0 67 3 121 8
121 4 0 8 -52 9 -115z m333 -49 c0 -50 -5 -79 -14 -88 -11 -12 -14 -60 -13
-239 l0 -224 -31 -16 c-18 -9 -39 -22 -47 -29 -8 -7 -15 -9 -15 -6 0 12 27 36
40 36 39 0 43 48 49 528 0 23 5 42 11 42 5 0 10 16 10 35 0 19 2 35 5 35 3 0
5 -33 5 -74z m-323 -158 c-2 -18 -4 -6 -4 27 0 33 2 48 4 33 2 -15 2 -42 0
-60z m23 -105 c0 -25 -3 -43 -7 -39 -10 10 -11 86 -1 86 4 0 8 -21 8 -47z m20
-120 c0 -13 -4 -23 -10 -23 -5 0 -10 17 -10 38 0 27 3 33 10 22 5 -8 10 -25
10 -37z m34 -109 c4 -42 5 -79 2 -82 -4 -3 -6 11 -6 31 0 21 -4 37 -9 37 -12
0 -23 48 -16 71 12 38 22 18 29 -57z m39 -156 c8 -5 6 -8 -5 -8 -14 0 -18 8
-17 38 2 34 2 34 6 7 3 -16 10 -33 16 -37z m67 32 c0 -5 -4 -10 -10 -10 -5 0
-10 5 -10 10 0 6 5 10 10 10 6 0 10 -4 10 -10z m-30 -20 c0 -5 -4 -10 -10 -10
-5 0 -10 5 -10 10 0 6 5 10 10 10 6 0 10 -4 10 -10z"/>
<path d="M9510 9330 c-25 -16 -51 -30 -57 -30 -7 0 -13 -4 -13 -10 0 -5 -5
-10 -11 -10 -7 0 -40 -18 -75 -40 -35 -22 -66 -40 -68 -40 -3 0 -34 -18 -68
-40 -35 -22 -69 -40 -75 -40 -7 0 -13 -4 -13 -10 0 -5 -5 -10 -10 -10 -6 0
-29 -13 -52 -30 -22 -16 -47 -30 -55 -30 -7 0 -13 -4 -13 -10 0 -5 -4 -10 -10
-10 -9 0 -110 -58 -120 -69 -3 -4 -21 -14 -40 -24 -19 -9 -48 -26 -65 -37 -16
-10 -46 -27 -65 -37 -19 -9 -40 -22 -46 -28 -6 -5 -28 -19 -50 -30 -21 -11
-40 -23 -42 -27 -2 -5 -10 -8 -17 -8 -7 0 -15 -3 -17 -7 -1 -5 -24 -19 -50
-33 -27 -13 -48 -28 -48 -32 0 -5 -4 -8 -10 -8 -5 0 -39 -18 -75 -40 -36 -22
-67 -40 -69 -40 -3 0 -41 -22 -85 -50 -44 -27 -85 -50 -91 -50 -5 0 -10 -4
-10 -9 0 -5 -11 -12 -25 -15 -14 -4 -25 -11 -25 -16 0 -6 -6 -10 -14 -10 -8 0
-21 -6 -28 -13 -7 -6 -30 -21 -51 -32 -74 -39 -107 -80 -107 -134 0 -70 46
-113 120 -113 38 1 61 9 114 41 37 23 71 41 76 41 6 0 10 5 10 10 0 6 4 10 10
10 8 0 229 130 290 171 8 5 23 12 33 15 9 4 17 10 17 15 0 5 6 9 14 9 8 0 21
6 28 13 7 7 20 16 28 20 8 3 38 20 65 37 28 16 57 33 65 37 8 4 50 29 92 55
43 26 82 48 88 48 5 0 10 4 10 9 0 4 23 19 50 32 28 13 50 27 50 31 0 5 4 8 9
8 5 0 77 41 161 90 84 50 156 90 161 90 5 0 9 3 9 8 0 4 21 19 48 32 26 14 49
28 50 33 2 4 10 7 18 7 8 0 14 5 14 10 0 6 6 10 13 10 6 0 40 18 75 40 34 22
66 40 70 40 4 0 23 14 42 31 32 29 35 35 35 89 0 54 -3 61 -34 89 -47 42 -99
42 -161 1z"/>
<path d="M9950 8612 c-19 -9 -36 -20 -38 -24 -2 -5 -8 -8 -13 -8 -5 0 -28 -13
-51 -30 -22 -16 -47 -30 -55 -30 -7 0 -13 -4 -13 -10 0 -5 -4 -10 -10 -10 -5
0 -39 -18 -75 -40 -36 -22 -67 -40 -69 -40 -3 0 -41 -22 -85 -50 -44 -27 -85
-50 -91 -50 -5 0 -10 -3 -10 -8 0 -4 -21 -19 -47 -32 -27 -14 -49 -28 -51 -32
-2 -5 -8 -8 -13 -8 -12 0 -113 -62 -117 -72 -2 -4 -8 -8 -13 -8 -5 0 -37 -17
-71 -38 -35 -21 -78 -45 -95 -53 -18 -7 -33 -16 -33 -19 0 -3 -21 -17 -47 -30
-27 -14 -49 -28 -51 -32 -2 -5 -10 -8 -17 -8 -7 0 -15 -3 -17 -7 -1 -5 -24
-19 -50 -33 -27 -13 -48 -28 -48 -32 0 -5 -5 -8 -10 -8 -6 0 -47 -22 -91 -50
-44 -27 -82 -50 -85 -50 -2 0 -33 -18 -69 -40 -36 -22 -70 -40 -75 -40 -6 0
-10 -4 -10 -10 0 -5 -6 -10 -13 -10 -8 0 -33 -13 -55 -30 -23 -16 -44 -30 -47
-30 -2 0 -39 -21 -82 -47 -102 -63 -102 -63 -169 -100 -32 -18 -61 -33 -66
-33 -4 0 -8 -4 -8 -10 0 -5 -4 -10 -9 -10 -6 0 -30 -13 -54 -30 -25 -16 -48
-30 -51 -30 -3 0 -64 -36 -135 -80 -71 -44 -134 -80 -140 -80 -6 0 -11 -4 -11
-10 0 -5 -4 -10 -10 -10 -5 0 -39 -18 -75 -40 -36 -22 -67 -40 -70 -40 -3 0
-70 -40 -150 -90 -80 -49 -147 -90 -150 -90 -3 0 -34 -18 -70 -40 -36 -22 -70
-40 -75 -40 -6 0 -10 -4 -10 -10 0 -5 -4 -10 -10 -10 -5 0 -68 -36 -140 -80
-72 -44 -133 -80 -136 -80 -3 0 -20 -11 -37 -24 -18 -13 -42 -27 -54 -31 -13
-3 -23 -11 -23 -16 0 -5 -4 -9 -10 -9 -5 0 -39 -18 -75 -40 -36 -22 -67 -40
-69 -40 -3 0 -41 -22 -85 -50 -44 -27 -85 -50 -91 -50 -5 0 -10 -4 -10 -9 0
-4 -22 -19 -50 -32 -27 -13 -50 -27 -50 -31 0 -5 -4 -8 -10 -8 -5 0 -40 -19
-77 -42 -38 -22 -89 -53 -114 -67 -88 -50 -112 -77 -126 -144 -7 -34 -13 -97
-13 -139 0 -43 -4 -97 -9 -120 -41 -187 -60 -256 -82 -300 -5 -10 -9 -24 -9
-31 0 -7 -18 -48 -40 -91 -22 -43 -40 -84 -40 -92 0 -8 -4 -14 -9 -14 -5 0
-13 -10 -17 -22 -4 -13 -10 -25 -14 -28 -4 -3 -24 -33 -46 -66 -21 -34 -57
-83 -79 -110 -42 -51 -202 -214 -211 -214 -3 0 -15 -10 -27 -22 -59 -61 -370
-238 -417 -238 -9 0 -20 -3 -24 -7 -17 -18 -219 -73 -265 -73 -15 0 -32 -5
-38 -11 -13 -13 -449 -15 -466 -1 -7 5 -37 12 -67 15 -54 5 -208 48 -242 67
-10 6 -25 10 -33 10 -9 0 -62 22 -118 50 -107 52 -152 61 -204 38 -15 -7 -85
-47 -156 -90 -70 -43 -132 -78 -137 -78 -6 0 -10 -4 -10 -9 0 -5 -8 -11 -17
-15 -10 -3 -40 -19 -68 -36 -27 -17 -59 -35 -70 -40 -11 -6 -32 -18 -47 -28
-97 -61 -219 -132 -228 -132 -5 0 -10 -4 -10 -10 0 -5 -4 -10 -9 -10 -6 0 -30
-13 -54 -30 -25 -16 -50 -30 -56 -30 -6 0 -11 -4 -11 -10 0 -5 -6 -10 -12 -10
-7 0 -41 -18 -76 -40 -34 -22 -65 -40 -68 -40 -2 0 -33 -18 -68 -40 -35 -22
-68 -40 -74 -40 -6 0 -12 -3 -14 -8 -5 -11 -103 -72 -116 -72 -7 0 -12 -4 -12
-10 0 -5 -5 -10 -10 -10 -6 0 -27 -11 -48 -23 -20 -13 -57 -35 -82 -49 -25
-14 -97 -57 -161 -96 -64 -40 -121 -72 -128 -72 -6 0 -11 -4 -11 -10 0 -5 -4
-10 -10 -10 -13 0 -114 -62 -118 -72 -2 -4 -8 -8 -13 -8 -5 0 -38 -18 -74 -40
-36 -22 -69 -40 -73 -41 -4 0 -38 -21 -77 -47 -47 -31 -76 -59 -88 -83 -29
-61 -6 -101 143 -248 122 -120 209 -199 253 -230 12 -9 31 -25 42 -36 11 -12
47 -41 80 -66 33 -24 64 -48 70 -52 5 -4 55 -39 110 -77 55 -39 111 -79 125
-90 14 -11 35 -23 48 -26 12 -3 22 -10 22 -15 0 -5 5 -9 11 -9 7 0 55 -26 108
-59 98 -60 444 -231 467 -231 3 0 20 -6 37 -14 55 -25 252 -96 265 -96 7 0 20
-4 30 -9 9 -5 35 -14 57 -20 22 -6 85 -24 140 -40 55 -16 114 -31 130 -34 17
-2 102 -19 190 -36 317 -63 689 -85 1055 -61 243 15 320 26 570 75 41 8 98 19
125 24 28 6 77 19 110 29 33 11 87 27 120 37 33 9 70 21 83 26 13 5 30 9 38 9
9 0 32 7 52 16 21 9 52 22 70 30 18 8 39 14 47 14 8 0 15 5 15 10 0 6 8 10 19
10 26 0 136 48 330 143 l163 81 19 -25 c10 -13 24 -35 31 -49 7 -14 30 -53 50
-88 21 -34 38 -67 38 -72 0 -6 5 -10 10 -10 6 0 10 -6 10 -14 0 -8 6 -21 13
-28 14 -16 35 -47 44 -68 4 -8 28 -50 55 -92 26 -43 48 -80 48 -82 0 -3 18
-32 40 -65 22 -33 40 -62 40 -65 0 -3 18 -35 40 -71 22 -36 40 -70 40 -75 0
-6 5 -10 10 -10 6 0 10 -5 10 -11 0 -6 36 -69 80 -140 44 -71 80 -131 80 -134
0 -3 18 -34 40 -70 22 -36 40 -70 40 -75 0 -6 5 -10 10 -10 6 0 10 -4 10 -10
0 -5 36 -68 80 -140 44 -72 80 -132 80 -135 0 -2 21 -39 48 -82 68 -112 70
-116 78 -133 4 -8 36 -61 71 -117 35 -57 63 -107 63 -113 0 -5 4 -10 10 -10 5
0 12 -11 16 -25 3 -14 10 -25 15 -25 5 0 9 -6 9 -14 0 -8 6 -21 13 -28 7 -7
16 -20 20 -28 3 -8 20 -37 37 -65 16 -27 33 -57 37 -65 25 -53 77 -121 108
-139 44 -25 74 -27 113 -4 34 20 53 54 76 138 10 33 24 82 32 109 7 26 14 57
14 67 0 10 5 21 10 24 6 3 10 19 10 36 0 16 4 37 10 47 5 9 14 37 19 62 5 25
17 70 26 100 9 30 20 71 25 90 16 67 57 227 68 261 6 19 15 52 21 74 6 22 27
99 47 170 20 72 40 146 44 165 8 34 25 96 56 210 9 30 18 66 21 80 2 14 8 34
13 45 5 11 10 31 13 45 2 14 15 61 27 105 28 99 39 140 50 185 5 19 16 62 25
95 9 33 22 81 28 107 7 25 15 50 20 54 4 4 7 22 7 39 0 17 3 35 7 38 6 6 58
192 69 247 3 14 9 34 14 45 5 11 10 31 13 45 2 14 15 61 27 105 29 104 39 142
50 185 5 19 16 62 25 95 9 33 22 81 28 107 7 25 15 50 20 54 4 4 7 20 7 36 0
15 4 36 10 46 5 9 14 37 19 62 5 25 22 88 36 140 15 52 30 111 34 130 8 35 15
60 45 155 9 28 16 58 16 68 0 9 4 25 9 35 8 15 35 119 64 245 6 26 15 47 19
47 4 0 8 16 8 35 0 19 4 43 10 53 8 14 39 125 70 252 11 43 21 83 50 185 12
44 25 91 27 105 3 14 8 34 13 45 5 11 11 31 14 45 3 14 12 52 21 85 9 33 22
81 28 107 7 25 15 50 20 54 4 4 7 22 7 39 0 17 3 35 7 38 5 6 51 165 73 257 4
19 16 62 25 95 10 33 21 76 26 95 18 76 32 126 40 142 5 10 9 27 9 37 0 11 4
30 9 43 5 13 19 61 31 108 12 47 26 94 30 105 5 11 11 34 13 50 5 27 25 104
73 275 9 30 19 71 24 90 4 19 15 62 25 95 9 33 22 81 29 107 6 25 14 50 19 54
4 4 7 18 7 31 0 13 6 45 14 71 13 42 33 113 56 197 9 32 85 316 100 375 17 67
42 155 56 199 8 25 14 55 14 67 0 13 5 26 10 29 6 3 10 16 10 29 0 12 6 42 14
67 7 24 21 73 31 109 9 36 21 74 25 85 5 11 11 34 14 50 5 32 24 105 51 195
31 104 37 135 42 196 4 57 3 62 -28 92 -28 27 -40 32 -78 31 -25 0 -62 -8 -81
-17z m-163 -418 c-3 -3 -12 -4 -19 -1 -8 3 -5 6 6 6 11 1 17 -2 13 -5z m-37
-14 c0 -5 -2 -10 -4 -10 -3 0 -8 5 -11 10 -3 6 -1 10 4 10 6 0 11 -4 11 -10z
m40 -14 c0 -8 -6 -21 -14 -28 -7 -8 -16 -29 -19 -48 -24 -137 -31 -170 -39
-170 -11 0 -10 48 2 55 6 3 10 24 10 46 0 21 4 39 9 39 4 0 11 20 13 45 6 51
38 103 38 61z m-60 0 c0 -2 -7 -9 -15 -16 -12 -10 -15 -10 -15 4 0 9 7 16 15
16 8 0 15 -2 15 -4z m-47 -33 c-7 -2 -19 -2 -25 0 -7 3 -2 5 12 5 14 0 19 -2
13 -5z m-43 -20 c-8 -3 -18 -11 -22 -17 -4 -6 -10 -7 -15 -3 -9 10 16 27 37
26 13 -1 13 -1 0 -6z m-50 -27 c0 -3 -4 -8 -10 -11 -5 -3 -10 -1 -10 4 0 6 5
11 10 11 6 0 10 -2 10 -4z m-61 -45 c-19 -9 -37 -20 -40 -25 -4 -5 -13 -6 -20
-4 -9 4 -3 10 16 19 17 8 36 19 43 26 8 7 19 10 25 6 6 -4 -4 -13 -24 -22z
m-79 -41 c0 -5 -4 -10 -10 -10 -5 0 -10 5 -10 10 0 6 5 10 10 10 6 0 10 -4 10
-10z m-60 -40 c0 -5 -8 -10 -17 -10 -15 0 -16 2 -3 10 19 12 20 12 20 0z m-40
-20 c0 -5 -5 -10 -11 -10 -5 0 -7 5 -4 10 3 6 8 10 11 10 2 0 4 -4 4 -10z
m-30 -14 c0 -11 -19 -15 -25 -6 -3 5 1 10 9 10 9 0 16 -2 16 -4z m-30 -20 c0
-2 -7 -9 -15 -16 -12 -10 -15 -10 -15 4 0 9 7 16 15 16 8 0 15 -2 15 -4z m416
-52 c-3 -8 -10 -14 -16 -14 -14 0 -13 28 3 44 10 12 13 12 15 -1 2 -8 1 -21
-2 -29z m-459 20 c-3 -3 -12 -4 -19 -1 -8 3 -5 6 6 6 11 1 17 -2 13 -5z m-42
-21 c-11 -3 -23 -10 -27 -16 -4 -6 -10 -8 -15 -4 -10 11 17 27 42 26 l20 -1
-20 -5z m-55 -33 c0 -5 -4 -10 -10 -10 -5 0 -10 5 -10 10 0 6 5 10 10 10 6 0
10 -4 10 -10z m521 -64 c-5 -12 -12 -30 -14 -41 -3 -11 -3 -4 -1 15 2 19 5 44
8 55 2 11 5 25 7 30 1 6 4 -1 6 -14 3 -13 0 -33 -6 -45z m-596 17 c-11 -3 -22
-8 -25 -12 -10 -12 -48 -30 -54 -24 -8 8 56 42 79 41 l20 0 -20 -5z m-95 -63
c0 -5 -3 -10 -7 -10 -5 0 -19 -3 -33 -6 -24 -6 -25 -6 -5 9 23 19 45 22 45 7z
m-70 -30 c0 -5 -5 -10 -11 -10 -5 0 -7 5 -4 10 3 6 8 10 11 10 2 0 4 -4 4 -10z
m740 -35 c0 -19 -4 -35 -10 -35 -11 0 -14 53 -3 63 11 12 13 8 13 -28z m-770
21 c0 -3 -4 -8 -10 -11 -5 -3 -10 -1 -10 4 0 6 5 11 10 11 6 0 10 -2 10 -4z
m-36 -31 c-6 -16 -24 -21 -24 -7 0 11 11 22 21 22 5 0 6 -7 3 -15z m-37 -21
c-3 -3 -12 -4 -19 -1 -8 3 -5 6 6 6 11 1 17 -2 13 -5z m-42 -21 c-11 -3 -23
-10 -27 -16 -4 -6 -10 -8 -15 -4 -10 11 17 27 42 26 l20 -1 -20 -5z m865 -22
c0 -11 -4 -23 -10 -26 -6 -4 -10 5 -10 19 0 14 5 26 10 26 6 0 10 -9 10 -19z
m-920 -11 c0 -5 -4 -10 -10 -10 -5 0 -10 5 -10 10 0 6 5 10 10 10 6 0 10 -4
10 -10z m-33 -26 c-3 -3 -12 -4 -19 -1 -8 3 -5 6 6 6 11 1 17 -2 13 -5z m923
-35 c0 -23 -4 -38 -10 -34 -11 7 -10 75 2 75 4 0 8 -18 8 -41z m-965 14 c-11
-3 -22 -8 -25 -12 -10 -12 -48 -30 -54 -24 -8 8 56 42 79 41 l20 0 -20 -5z
m-106 -74 c-8 -5 -23 -9 -34 -9 -17 0 -15 4 10 20 19 12 31 16 34 9 2 -6 -3
-15 -10 -20z m1048 -31 c-2 -13 -4 -5 -4 17 -1 22 1 32 4 23 2 -10 2 -28 0
-40z m-1107 4 c-8 -3 -23 -9 -32 -14 -10 -5 -18 -5 -18 -1 0 11 43 30 55 24 5
-2 2 -7 -5 -9z m-66 -37 c-4 -8 -17 -18 -30 -21 -13 -3 -24 -10 -24 -15 0 -5
-8 -9 -18 -9 -10 0 -23 -5 -30 -12 -7 -7 -12 -8 -12 -2 0 11 56 44 75 44 7 0
15 7 19 15 3 8 10 15 15 15 6 0 8 -7 5 -15z m1163 -25 c1 -10 -2 -22 -7 -25
-6 -4 -10 7 -10 26 0 34 12 33 17 -1z m-1297 -50 c0 -5 -4 -10 -10 -10 -5 0
-10 5 -10 10 0 6 5 10 10 10 6 0 10 -4 10 -10z m1280 -25 c0 -14 -4 -25 -10
-25 -5 0 -10 11 -10 25 0 14 5 25 10 25 6 0 10 -11 10 -25z m-1313 -1 c-3 -3
-12 -4 -19 -1 -8 3 -5 6 6 6 11 1 17 -2 13 -5z m-30 -20 c-3 -3 -12 -4 -19 -1
-8 3 -5 6 6 6 11 1 17 -2 13 -5z m-37 -14 c0 -5 -7 -10 -15 -10 -8 0 -15 -4
-15 -10 0 -5 -7 -7 -16 -3 -12 4 -11 8 8 18 29 16 38 18 38 5z m1355 -20 c9
-14 -4 -52 -16 -45 -12 8 -12 55 0 55 6 0 13 -5 16 -10z m-1415 -20 c0 -12
-34 -30 -57 -30 -13 0 -10 5 12 20 33 22 45 25 45 10z m1387 -92 c-2 -13 -4
-3 -4 22 0 25 2 35 4 23 2 -13 2 -33 0 -45z m-1467 45 c-8 -3 -23 -10 -32 -15
-11 -5 -18 -5 -18 1 0 10 23 18 50 19 13 0 13 0 0 -5z m-70 -37 c0 -8 -10 -18
-22 -22 -13 -4 -26 -11 -29 -17 -4 -5 -12 -8 -19 -5 -6 2 1 10 17 18 15 8 32
21 36 27 11 17 17 16 17 -1z m1517 -78 c-2 -13 -4 -5 -4 17 -1 22 1 32 4 23 2
-10 2 -28 0 -40z m-1607 22 c0 -5 -4 -10 -10 -10 -5 0 -10 5 -10 10 0 6 5 10
10 10 6 0 10 -4 10 -10z m-47 -359 c-5 -3 -9 -35 -9 -71 -2 -125 -5 -147 -13
-125 -10 23 -5 158 7 213 5 20 8 100 7 177 -1 77 1 145 4 150 3 6 7 -68 9
-164 1 -96 -1 -177 -5 -180z m1643 251 c-12 -12 -18 8 -10 35 l8 28 4 -28 c2
-16 1 -31 -2 -35z m-20 -58 c-3 -8 -10 -14 -16 -14 -14 0 -13 28 3 44 10 12
13 12 15 -1 2 -8 1 -21 -2 -29z m-26 -64 c0 -16 -4 -30 -10 -30 -5 0 -8 10 -6
23 3 12 5 25 5 30 2 21 11 3 11 -23z m-25 -114 c-4 -36 -11 -66 -16 -66 -12 0
-11 57 1 65 6 3 10 22 10 42 0 20 3 34 6 30 3 -3 3 -35 -1 -71z m-25 -111 c0
-14 -4 -25 -10 -25 -5 0 -10 11 -10 25 0 14 5 25 10 25 6 0 10 -11 10 -25z
m-38 -104 c-6 -3 -12 -24 -15 -46 l-4 -40 -1 42 c-1 23 3 45 8 48 6 3 11 16
11 28 2 21 2 20 6 -2 3 -13 0 -27 -5 -30z m-1543 -106 c-3 -76 -19 -81 -19 -6
0 36 4 61 11 61 6 0 9 -22 8 -55z m1518 -5 c1 -10 -2 -22 -7 -25 -6 -4 -10 7
-10 26 0 34 12 33 17 -1z m-17 -75 c0 -14 -4 -25 -10 -25 -5 0 -10 11 -10 25
0 14 5 25 10 25 6 0 10 -11 10 -25z m-1520 -49 c0 -25 -4 -48 -10 -51 -6 -4
-10 13 -10 44 0 28 5 51 10 51 6 0 10 -20 10 -44z m1500 -15 c0 -17 -12 -41
-21 -41 -5 0 -9 11 -9 25 0 16 6 25 15 25 8 0 15 -4 15 -9z m-1520 -102 c0
-31 -4 -48 -10 -44 -11 7 -13 54 -4 79 10 27 14 18 14 -35z m1483 -18 c-4 -3
-10 -19 -12 -36 -4 -43 -11 -44 -11 -2 0 20 5 39 10 42 6 3 11 18 11 33 l2 27
4 -29 c3 -16 1 -32 -4 -35z m-1499 -63 c-1 -13 -3 -34 -4 -48 -2 -23 -3 -23
-9 5 -8 32 -3 65 8 65 4 0 7 -10 5 -22z m1476 -54 c0 -21 -4 -33 -10 -29 -17
10 -11 65 7 65 2 0 3 -16 3 -36z m-1494 -38 c7 -28 -2 -49 -17 -41 -12 8 -12
65 1 65 5 0 12 -11 16 -24z m1474 -30 c0 -13 -7 -29 -15 -36 -8 -7 -15 -28
-15 -47 0 -19 -4 -32 -9 -29 -7 5 2 82 15 124 6 21 24 13 24 -12z m-1500 -67
c0 -16 -4 -29 -10 -29 -5 0 -10 -16 -10 -35 0 -19 -4 -35 -9 -35 -6 0 -12 -12
-14 -27 -2 -16 -2 -3 0 27 3 30 9 59 14 65 5 5 9 24 9 43 0 19 4 31 10 27 6
-3 10 -19 10 -36z m1447 -106 c-3 -10 -5 -2 -5 17 0 19 2 27 5 18 2 -10 2 -26
0 -35z m-7 -53 c0 -16 -4 -30 -10 -30 -5 0 -10 14 -10 30 0 17 5 30 10 30 6 0
10 -13 10 -30z m-1498 -35 c-2 -15 -8 -23 -13 -18 -10 10 0 55 11 48 4 -2 5
-16 2 -30z m1478 -35 c0 -16 -4 -30 -10 -30 -11 0 -14 43 -3 53 11 12 13 8 13
-23z m-1500 -22 c0 -7 -5 -20 -10 -28 -8 -12 -10 -9 -10 13 0 15 5 27 10 27 6
0 10 -6 10 -12z m-20 -74 c0 -13 -4 -24 -10 -24 -5 0 -10 -12 -10 -27 0 -14
-2 -24 -5 -21 -9 9 7 108 16 102 5 -3 9 -16 9 -30z m1490 4 c0 -21 -3 -29 -10
-22 -5 5 -7 19 -4 32 9 31 14 27 14 -10z m-23 -80 c-2 -13 -4 -5 -4 17 -1 22
1 32 4 23 2 -10 2 -28 0 -40z m-1511 -35 c-11 -11 -17 4 -9 23 7 18 8 18 11 1
2 -10 1 -21 -2 -24z m1498 -19 c-4 -38 -14 -42 -14 -6 0 18 4 32 9 32 4 0 7
-12 5 -26z m-1524 -34 c-5 -10 -10 -28 -10 -39 0 -12 -4 -21 -10 -21 -5 0 -10
-12 -10 -27 0 -20 -3 -24 -11 -16 -8 8 -8 17 0 31 6 11 11 30 11 41 0 12 5 21
10 21 6 0 10 9 10 21 0 11 5 17 10 14 7 -4 7 -12 0 -25z m1510 -40 c0 -16 -4
-30 -10 -30 -11 0 -14 43 -3 53 11 12 13 8 13 -23z m-20 -64 c0 -22 -11 -46
-21 -46 -5 0 -9 14 -9 30 0 20 5 30 15 30 8 0 15 -6 15 -14z m-1544 -51 c-7
-34 -36 -51 -36 -20 0 8 7 15 15 15 9 0 15 6 14 13 -3 22 1 40 7 34 4 -3 3
-22 0 -42z m1511 -52 c-3 -10 -5 -2 -5 17 0 19 2 27 5 18 2 -10 2 -26 0 -35z
m-1555 -15 c-9 -9 -12 -7 -12 12 0 19 3 21 12 12 9 -9 9 -15 0 -24z m1535 -60
c-2 -13 -4 -5 -4 17 -1 22 1 32 4 23 2 -10 2 -28 0 -40z m-1547 27 c0 -8 -4
-15 -10 -15 -5 0 -10 -12 -10 -27 0 -14 -3 -24 -6 -20 -9 9 5 77 16 77 6 0 10
-7 10 -15z m1537 -102 c-4 -17 -4 -17 -12 0 -4 9 -4 25 0 35 8 16 8 16 12 0 3
-10 3 -26 0 -35z m-1577 22 c0 -8 -4 -15 -10 -15 -5 0 -7 7 -4 15 4 8 8 15 10
15 2 0 4 -7 4 -15z m-20 -39 c0 -3 -4 -8 -10 -11 -5 -3 -10 -1 -10 4 0 6 5 11
10 11 6 0 10 -2 10 -4z m1574 -22 c8 -20 -2 -54 -15 -54 -5 0 -9 -18 -9 -40 0
-22 -4 -40 -10 -40 -5 0 -11 -15 -11 -32 -1 -20 -3 -25 -6 -14 -3 10 1 39 8
63 10 38 10 46 -2 54 -11 7 -11 9 4 9 13 0 17 8 17 35 0 37 13 47 24 19z
m-1594 -13 c0 -6 -4 -13 -10 -16 -5 -3 -10 -15 -10 -26 0 -11 -4 -18 -9 -15
-10 7 9 66 21 66 4 0 8 -4 8 -9z m216 -80 c5 -5 23 -11 39 -14 27 -4 26 -4 -7
-6 -21 0 -38 3 -38 8 0 5 -61 8 -135 7 -74 0 -135 2 -135 7 0 10 264 9 276 -2z
m124 -36 c0 -9 -9 -15 -25 -15 -16 0 -25 6 -25 15 0 9 9 15 25 15 16 0 25 -6
25 -15z m63 -32 c9 -3 17 -9 17 -14 0 -12 -17 -11 -25 1 -3 6 -15 10 -26 10
-10 0 -19 5 -19 11 0 7 7 8 18 4 9 -4 25 -10 35 -12z m54 -29 c-3 -3 -12 -4
-19 -1 -8 3 -5 6 6 6 11 1 17 -2 13 -5z m43 -24 c0 -13 -11 -13 -30 0 -12 8
-11 10 8 10 12 0 22 -4 22 -10z m1040 -25 c0 -14 -4 -25 -10 -25 -5 0 -10 11
-10 25 0 14 5 25 10 25 6 0 10 -11 10 -25z m-978 -25 c12 0 42 -29 36 -36 -3
-2 -15 5 -28 16 -13 11 -27 20 -32 20 -5 0 -6 5 -2 12 6 9 9 9 12 0 2 -7 8
-12 14 -12z m954 -78 c-12 -11 -17 7 -9 34 l8 29 3 -28 c2 -16 1 -31 -2 -35z
m-850 -16 c8 -8 14 -19 14 -25 0 -6 5 -11 12 -11 6 0 8 -3 5 -7 -4 -3 -20 8
-37 25 -29 31 -24 47 6 18z m816 -65 c-5 -3 -12 -24 -16 -46 -11 -70 -14 -87
-20 -93 -3 -3 -6 9 -6 26 0 17 5 34 10 37 6 3 10 18 10 32 0 14 6 44 13 67 11
39 12 40 15 12 2 -16 -1 -32 -6 -35z m-1466 24 c-15 -16 -86 -21 -86 -7 0 17
14 22 57 22 40 0 43 -2 29 -15z m174 2 c0 -19 -68 -20 -87 -2 -13 13 -8 15 36
15 36 0 51 -4 51 -13z m-282 -24 c-10 -2 -28 -2 -40 0 -13 2 -5 4 17 4 22 1
32 -1 23 -4z m368 -8 c27 -14 27 -15 7 -15 -13 0 -23 4 -23 9 0 6 -15 12 -32
14 -28 3 -29 4 -7 5 15 1 40 -5 55 -13z m-438 -12 c-10 -2 -18 -9 -18 -14 0
-5 -7 -9 -15 -9 -8 0 -15 4 -15 9 0 10 24 19 50 19 10 0 9 -2 -2 -5z m492 -13
c0 -5 -4 -10 -10 -10 -5 0 -10 5 -10 10 0 6 5 10 10 10 6 0 10 -4 10 -10z
m407 -12 c-3 -8 -6 -5 -6 6 -1 11 2 17 5 13 3 -3 4 -12 1 -19z m-987 -30 c-16
-17 -32 -29 -35 -26 -7 6 45 58 57 58 4 0 -6 -14 -22 -32z m638 1 c13 -16 19
-29 13 -29 -6 0 -11 4 -11 8 0 5 -11 14 -25 20 -14 6 -25 16 -25 22 0 19 25 9
48 -21z m383 -9 c5 0 9 -7 9 -15 0 -15 -20 -22 -20 -7 0 4 -2 16 -4 27 -2 11
-1 14 1 8 3 -7 9 -13 14 -13z m-321 -61 c0 -7 -6 -4 -15 7 -19 25 -19 40 0 20
8 -8 15 -20 15 -27z m347 6 c0 -8 -4 -15 -9 -15 -4 0 -8 7 -8 15 0 8 4 15 8
15 5 0 9 -7 9 -15z m-1144 -35 c-20 -34 -40 -42 -21 -7 12 20 28 36 36 37 2 0
-5 -13 -15 -30z m827 6 c0 -8 6 -16 13 -19 6 -2 9 -8 5 -12 -8 -8 -32 14 -35
33 -2 6 2 12 7 12 6 0 10 -6 10 -14z m340 -18 c-1 -28 -2 -30 -11 -15 -6 10
-8 25 -5 33 9 24 16 16 16 -18z m620 2 c0 -16 -4 -30 -10 -30 -11 0 -14 43 -3
53 11 12 13 8 13 -23z m-910 -89 c0 -11 -4 -9 -15 5 -8 10 -14 28 -14 39 0 18
1 17 14 -5 8 -14 14 -31 15 -39z m307 12 c-3 -10 -5 -2 -5 17 0 19 2 27 5 18
2 -10 2 -26 0 -35z m-1223 3 c-3 -14 -12 -26 -20 -26 -19 0 -18 19 1 26 8 4
15 13 15 22 0 8 2 13 5 10 4 -3 3 -17 -1 -32z m1796 15 c0 -5 3 -16 6 -24 3
-8 -2 -21 -10 -29 -8 -8 -17 -28 -19 -44 -2 -16 -2 -6 0 21 3 28 5 58 5 68 -1
9 3 17 9 17 5 0 9 -4 9 -9z m-551 -93 c0 -39 -3 -48 -9 -33 -12 28 -12 85 0
85 6 0 10 -24 9 -52z m-301 9 c2 -12 -1 -15 -12 -11 -19 7 -22 38 -3 32 6 -3
13 -12 15 -21z m-978 1 c0 -7 -5 -20 -10 -28 -8 -12 -10 -9 -10 13 0 15 5 27
10 27 6 0 10 -6 10 -12z m1000 -148 c0 -67 -4 -110 -10 -110 -6 0 -10 43 -10
110 0 67 4 110 10 110 6 0 10 -43 10 -110z m-1020 -7 c0 -58 -3 -103 -7 -99
-9 8 -13 174 -6 194 11 26 13 8 13 -95z m1807 55 c-2 -13 -4 -5 -4 17 -1 22 1
32 4 23 2 -10 2 -28 0 -40z m-493 -55 c2 -34 0 -67 -5 -75 -5 -8 -9 19 -9 66
0 92 8 97 14 9z m486 -3 c0 -16 -4 -30 -10 -30 -11 0 -14 43 -3 53 11 12 13 8
13 -23z m-2080 -121 c0 -37 -4 -58 -10 -54 -16 10 -11 115 6 115 2 0 4 -27 4
-61z m2046 16 c-10 -8 -16 -27 -16 -51 0 -26 -3 -34 -9 -25 -10 15 5 89 22
110 10 12 13 11 16 -4 2 -10 -4 -24 -13 -30z m-474 -84 c-6 -3 -12 -17 -15
-31 -2 -14 -2 -5 0 20 5 43 8 65 14 100 1 8 4 -7 6 -34 3 -27 0 -52 -5 -55z
m-1281 36 c-8 -8 -11 -3 -11 19 1 25 2 27 11 11 8 -14 8 -22 0 -30z m976 -12
c-8 -6 -17 -20 -20 -30 -2 -11 -3 -2 0 20 2 21 9 46 16 54 10 12 13 11 15 -9
2 -13 -3 -29 -11 -35z m-1339 21 c-7 -8 -15 -12 -17 -11 -5 6 10 25 20 25 5 0
4 -6 -3 -14z m-28 -26 c0 -5 -2 -10 -4 -10 -3 0 -8 5 -11 10 -3 6 -1 10 4 10
6 0 11 -4 11 -10z m-30 -18 c0 -13 -31 -45 -58 -60 -32 -18 -27 -8 15 33 38
37 43 40 43 27z m454 -13 c-6 -11 -24 -2 -24 11 0 5 7 7 15 4 8 -4 12 -10 9
-15z m-317 -26 c-3 -10 -5 -4 -5 12 0 17 2 24 5 18 2 -7 2 -21 0 -30z m2000
-15 c-2 -13 -4 -5 -4 17 -1 22 1 32 4 23 2 -10 2 -28 0 -40z m-1667 7 c0 -8
-2 -15 -4 -15 -2 0 -6 7 -10 15 -3 8 -1 15 4 15 6 0 10 -7 10 -15z m886 -20
c-6 -24 -26 -36 -26 -15 0 6 5 10 10 10 6 0 10 10 10 22 0 12 3 19 6 15 4 -3
4 -18 0 -32z m-1199 -42 c-3 -10 -5 -2 -5 17 0 19 2 27 5 18 2 -10 2 -26 0
-35z m333 31 c0 -8 -5 -12 -10 -9 -6 4 -8 11 -5 16 9 14 15 11 15 -7z m1183
-14 c-3 -11 -9 -20 -14 -20 -10 0 -12 24 -2 33 13 13 21 7 16 -13z m457 -21
c0 -17 -4 -28 -10 -24 -5 3 -10 17 -10 31 0 13 5 24 10 24 6 0 10 -14 10 -31z
m-2266 -14 c-15 -13 -31 -22 -33 -19 -6 6 39 43 53 44 5 0 -4 -11 -20 -25z
m326 -15 c0 -5 -4 -10 -10 -10 -5 0 -10 5 -10 10 0 6 5 10 10 10 6 0 10 -4 10
-10z m1114 -4 c-5 -14 -34 -31 -34 -20 0 8 24 33 32 34 4 0 5 -6 2 -14z m346
10 c0 -3 -4 -8 -10 -11 -5 -3 -10 -1 -10 4 0 6 5 11 10 11 6 0 10 -2 10 -4z
m-1081 -42 c12 -14 20 -28 17 -32 -3 -3 -7 -3 -8 -1 -2 2 -14 16 -27 32 -14
15 -20 27 -15 27 6 0 21 -12 33 -26z m-359 0 c0 -8 -4 -12 -10 -9 -5 3 -10 10
-10 16 0 5 5 9 10 9 6 0 10 -7 10 -16z m1420 1 c0 -8 -4 -15 -10 -15 -5 0 -10
7 -10 15 0 8 5 15 10 15 6 0 10 -7 10 -15z m476 -33 c-12 -11 -18 7 -10 30 l8
23 4 -23 c2 -13 1 -26 -2 -30z m-2316 13 c-7 -8 -21 -15 -31 -15 -11 0 -19 -5
-19 -12 0 -6 -3 -8 -7 -4 -9 9 36 45 56 46 11 0 11 -3 1 -15z m1454 -4 c3 -5
-5 -12 -19 -15 -14 -4 -25 -11 -25 -16 0 -6 -8 -10 -17 -10 -13 0 -11 5 10 18
15 9 27 20 27 24 0 11 18 10 24 -1z m366 -16 c0 -8 -4 -15 -10 -15 -5 0 -7 7
-4 15 4 8 8 15 10 15 2 0 4 -7 4 -15z m-976 -10 c11 -8 17 -17 14 -20 -2 -3
-15 4 -28 15 -26 23 -15 27 14 5z m-397 -27 c-3 -8 -6 -5 -6 6 -1 11 2 17 5
13 3 -3 4 -12 1 -19z m1846 -25 c-3 -7 -9 -13 -13 -13 -4 0 -10 -19 -13 -42
-2 -24 -8 -54 -11 -68 -4 -14 -10 -44 -13 -67 -3 -24 -9 -40 -14 -37 -12 7
-11 51 1 59 6 3 10 22 10 41 0 19 4 34 9 34 5 0 11 19 14 43 3 23 7 51 10 62
3 11 6 25 7 30 1 6 5 1 9 -10 5 -11 6 -26 4 -32z m-1399 22 c3 -8 1 -15 -4
-15 -6 0 -10 7 -10 15 0 8 2 15 4 15 2 0 6 -7 10 -15z m466 0 c0 -8 -4 -15
-10 -15 -5 0 -7 7 -4 15 4 8 8 15 10 15 2 0 4 -7 4 -15z m-1474 -21 c-30 -21
-42 -17 -16 6 13 11 26 17 29 14 3 -3 -3 -12 -13 -20z m588 0 c3 -8 2 -12 -4
-9 -6 3 -10 10 -10 16 0 14 7 11 14 -7z m1293 -6 c-3 -8 -6 -5 -6 6 -1 11 2
17 5 13 3 -3 4 -12 1 -19z m-812 2 c4 -6 -5 -10 -19 -10 -14 0 -26 5 -26 10 0
6 9 10 19 10 11 0 23 -4 26 -10z m375 0 c0 -5 -12 -10 -27 -10 -22 0 -25 2
-13 10 20 13 40 13 40 0z m-1490 -28 c-8 -3 -18 -9 -21 -15 -4 -5 -12 -6 -19
-2 -14 9 29 35 45 27 5 -3 2 -8 -5 -10z m290 8 c0 -5 -4 -10 -10 -10 -5 0 -10
5 -10 10 0 6 5 10 10 10 6 0 10 -4 10 -10z m400 -43 c0 -5 10 -18 22 -28 11
-11 17 -19 13 -19 -12 0 -45 31 -45 42 0 5 -7 16 -15 24 -8 9 -15 20 -15 26 0
6 9 1 20 -12 11 -13 20 -27 20 -33z m515 44 c-6 -6 -25 -6 -45 -1 l-35 8 45 1
c27 1 40 -3 35 -8z m224 5 c-11 -11 -68 -15 -74 -6 -4 6 10 10 36 10 23 0 40
-2 38 -4z m472 -23 c-12 -20 -14 -14 -5 12 4 9 9 14 11 11 3 -2 0 -13 -6 -23z
m-593 0 c-16 -2 -40 -2 -55 0 -16 2 -3 4 27 4 30 0 43 -2 28 -4z m-1358 -29
c0 -8 -5 -12 -10 -9 -6 4 -8 11 -5 16 9 14 15 11 15 -7z m1925 -13 c-3 -6 -11
-11 -16 -11 -5 0 -4 6 3 14 14 16 24 13 13 -3z m-1969 -16 c-8 -8 -20 -15 -27
-15 -9 0 -8 4 1 15 7 8 19 15 27 15 12 0 12 -2 -1 -15z m-46 -19 c0 -3 -4 -8
-10 -11 -5 -3 -10 -1 -10 4 0 6 5 11 10 11 6 0 10 -2 10 -4z m-81 -64 c-19 -9
-36 -19 -39 -22 -7 -7 -48 -30 -55 -30 -18 0 2 18 38 35 23 11 48 26 55 33 8
6 18 9 24 6 5 -4 -5 -14 -23 -22z m1035 2 c4 -12 2 -12 -14 -4 -11 6 -20 15
-20 20 0 14 28 1 34 -16z m951 6 c-10 -11 -22 -20 -26 -20 -5 0 -1 9 8 20 10
11 22 20 27 20 5 0 1 -9 -9 -20z m-905 -30 c0 -5 -4 -10 -10 -10 -5 0 -10 5
-10 10 0 6 5 10 10 10 6 0 10 -4 10 -10z m860 0 c0 -5 -4 -10 -10 -10 -5 0
-10 5 -10 10 0 6 5 10 10 10 6 0 10 -4 10 -10z m-820 -14 c0 -11 -19 -15 -25
-6 -3 5 1 10 9 10 9 0 16 -2 16 -4z m790 -6 c0 -5 -4 -10 -9 -10 -6 0 -13 5
-16 10 -3 6 1 10 9 10 9 0 16 -4 16 -10z m-6104 -24 c3 -8 21 -17 40 -20 19
-4 34 -11 34 -16 0 -6 7 -10 15 -10 8 0 15 -5 15 -11 0 -6 -6 -8 -12 -5 -7 3
-21 9 -30 12 -10 4 -18 10 -18 15 0 5 -8 9 -18 9 -10 0 -23 5 -28 10 -7 7 -21
7 -43 -1 -17 -6 -35 -9 -38 -5 -4 3 1 6 9 6 9 0 18 7 22 15 7 19 45 20 52 1z
m4084 -1 c0 -8 -14 -17 -35 -21 -19 -3 -35 -10 -35 -15 0 -5 -9 -9 -20 -9 -11
0 -20 -4 -20 -10 0 -5 -6 -10 -14 -10 -8 0 -17 -7 -20 -16 -3 -8 -10 -12 -16
-9 -15 9 -12 25 5 25 8 0 15 4 15 8 0 5 17 15 37 23 20 8 51 22 68 31 37 21
35 21 35 3z m1305 -23 c-9 -10 -65 11 -65 24 0 11 6 10 34 -4 19 -9 33 -19 31
-20z m680 18 c-3 -5 -21 -12 -40 -16 -19 -3 -35 -10 -35 -15 0 -5 -15 -9 -32
-9 -28 1 -30 2 -15 11 9 5 21 8 26 4 5 -3 12 -1 16 5 3 5 15 10 26 10 10 0 19
5 19 10 0 6 9 10 21 10 11 0 18 -4 14 -10z m718 -11 c7 -25 -2 -51 -13 -44
-11 6 -10 65 0 65 4 0 10 -9 13 -21z m-1333 -25 c0 -2 -12 -4 -26 -4 -14 0
-23 4 -20 9 6 8 46 4 46 -5z m-5543 0 c-3 -3 -12 -4 -19 -1 -8 3 -5 6 6 6 11
1 17 -2 13 -5z m-37 -14 c0 -5 -7 -10 -15 -10 -8 0 -15 5 -15 10 0 6 7 10 15
10 8 0 15 -4 15 -10z m5640 0 c0 -13 -20 -13 -40 0 -12 8 -9 10 13 10 15 0 27
-4 27 -10z m400 0 c-20 -13 -40 -13 -40 0 0 6 12 10 28 10 21 0 24 -2 12 -10z
m-6080 -19 c0 -6 -4 -13 -10 -16 -5 -3 -10 1 -10 9 0 9 5 16 10 16 6 0 10 -4
10 -9z m320 -1 c0 -11 82 -50 106 -50 14 0 15 -3 6 -12 -9 -9 -15 -9 -24 0 -7
7 -20 12 -30 12 -10 0 -18 5 -18 10 0 6 -3 9 -7 8 -5 -1 -20 2 -35 6 -29 9
-39 36 -13 36 8 0 15 -4 15 -10z m5518 -7 c3 -10 -12 -13 -52 -13 -31 0 -56 4
-56 9 0 5 -8 12 -17 14 -10 3 13 4 51 4 45 -1 71 -6 74 -14z m170 10 c-10 -2
-18 -9 -18 -14 0 -5 -25 -9 -55 -9 -30 0 -55 4 -55 9 0 15 21 19 85 19 33 0
52 -2 43 -5z m913 -67 c-5 -12 -12 -32 -15 -46 -3 -14 -3 -9 -1 10 2 19 7 51
12 70 6 30 8 32 11 11 2 -13 -1 -33 -7 -45z m-6947 28 c30 -29 14 -27 -34 6
-13 8 -13 10 2 10 9 0 24 -7 32 -16z m4079 9 c-13 -2 -23 -9 -23 -14 0 -5 -8
-9 -18 -9 -10 0 -23 -5 -30 -12 -9 -9 -15 -9 -24 0 -9 9 -8 12 8 12 10 1 30 7
44 15 14 8 34 14 45 13 17 -1 17 -1 -2 -5z m-4019 -69 c3 -8 2 -14 -2 -14 -10
0 -32 22 -32 32 0 12 28 -2 34 -18z m446 22 c0 -2 -7 -6 -15 -10 -8 -3 -15 -1
-15 4 0 6 7 10 15 10 8 0 15 -2 15 -4z m3465 -6 c-3 -5 -13 -10 -21 -10 -8 0
-14 5 -14 10 0 6 9 10 21 10 11 0 17 -4 14 -10z m-3415 -30 c0 -4 20 -11 45
-14 45 -7 63 -26 25 -26 -11 0 -20 5 -20 10 0 6 -8 10 -19 10 -33 0 -84 22
-70 30 14 9 39 2 39 -10z m3375 10 c3 -5 -14 -15 -37 -21 -24 -7 -47 -16 -52
-21 -14 -11 -36 -10 -36 2 0 6 8 10 18 10 9 0 33 9 52 19 41 23 47 24 55 11z
m-3830 -39 c-6 -5 -25 10 -25 20 0 5 6 4 14 -3 8 -7 12 -15 11 -17z m6816 -69
c-6 -2 -11 -17 -11 -33 0 -17 -6 -32 -15 -35 -10 -4 -15 -20 -15 -48 0 -26 -3
-36 -9 -27 -10 15 2 75 24 117 8 16 15 41 15 55 0 39 15 45 18 8 2 -19 -1 -35
-7 -37z m-6231 48 c0 -5 -7 -10 -15 -10 -8 0 -15 5 -15 10 0 6 7 10 15 10 8 0
15 -4 15 -10z m3105 0 c-3 -5 -13 -10 -21 -10 -8 0 -14 5 -14 10 0 6 9 10 21
10 11 0 17 -4 14 -10z m-3049 -24 c3 -8 24 -17 47 -20 57 -9 83 -26 40 -26
-18 0 -33 5 -33 10 0 6 -9 10 -20 10 -24 0 -70 21 -70 32 0 14 30 9 36 -6z
m3004 5 c0 -10 -54 -31 -81 -31 -11 0 -19 -4 -19 -10 0 -5 -11 -10 -25 -10
-43 0 -27 17 22 25 25 4 52 13 60 21 16 16 43 19 43 5z m-3500 -78 c0 -18 -3
-17 -41 17 l-34 30 37 -18 c21 -9 37 -23 38 -29z m670 17 c0 -5 11 -10 24 -10
13 0 26 -7 30 -15 3 -8 16 -15 28 -15 13 0 45 -7 72 -15 27 -8 62 -15 78 -15
15 0 28 -4 28 -10 0 -12 -57 -13 -64 -1 -3 5 -23 11 -43 14 -55 7 -83 15 -99
27 -7 7 -17 9 -22 6 -6 -3 -15 1 -22 9 -7 8 -23 15 -36 15 -13 0 -24 5 -24 10
0 6 11 10 25 10 14 0 25 -4 25 -10z m2665 0 c-3 -5 -13 -10 -21 -10 -8 0 -14
5 -14 10 0 6 9 10 21 10 11 0 17 -4 14 -10z m-55 -26 c0 -8 -5 -12 -10 -9 -6
4 -17 1 -25 -5 -8 -7 -30 -12 -50 -12 -19 0 -35 -4 -35 -9 0 -5 -16 -9 -35 -9
-19 0 -35 -4 -35 -10 0 -5 -13 -10 -30 -10 -16 0 -30 4 -30 9 0 7 28 14 102
25 10 1 21 5 24 9 4 4 25 7 46 7 27 0 38 4 38 15 0 8 9 15 20 15 11 0 20 -7
20 -16z m-3192 -56 c16 -16 15 -29 -2 -22 -16 6 -30 34 -18 34 5 0 13 -5 20
-12z m904 -20 c-8 -8 -17 -8 -34 0 -22 10 -21 11 12 11 26 1 31 -2 22 -11z
m2023 2 c-3 -5 -17 -10 -31 -10 -13 0 -24 5 -24 10 0 6 14 10 31 10 17 0 28
-4 24 -10z m-90 -19 c16 -7 8 -11 -37 -20 -32 -7 -72 -10 -90 -8 -31 4 -31 4
7 6 22 1 49 8 59 16 22 17 31 17 61 6z m-1835 -10 c0 -6 21 -12 48 -14 26 -2
18 -3 -18 -1 -36 1 -76 7 -90 13 -23 9 -21 10 18 10 23 1 42 -3 42 -8z m5515
-66 c-7 -65 -25 -91 -25 -35 0 17 5 30 10 30 6 0 10 19 10 42 0 23 3 39 6 35
4 -3 3 -36 -1 -72z m-6437 49 c14 -15 14 -16 -3 -13 -10 2 -20 10 -23 17 -5
17 6 15 26 -4z m1122 -14 c0 -5 -18 -10 -39 -10 -22 0 -43 5 -46 10 -4 6 12
10 39 10 25 0 46 -4 46 -10z m1470 0 c0 -5 -20 -10 -45 -10 -25 0 -45 5 -45
10 0 6 20 10 45 10 25 0 45 -4 45 -10z m-2535 -26 c9 -9 13 -19 10 -22 -3 -3
-14 4 -25 16 -24 25 -10 30 15 6z m1195 6 c0 -5 -22 -10 -49 -10 -28 0 -53 5
-56 10 -4 6 15 10 49 10 31 0 56 -4 56 -10z m1226 1 c-8 -12 -106 -13 -106 -1
0 6 25 10 56 10 30 0 53 -4 50 -9z m-1060 -26 c16 -12 80 -14 396 -15 292 0
377 3 380 13 6 15 149 17 155 1 5 -15 -98 -19 -537 -19 -492 0 -549 3 -523 28
12 13 109 7 129 -8z m-1321 -15 c3 -5 1 -10 -4 -10 -6 0 -11 5 -11 10 0 6 2
10 4 10 3 0 8 -4 11 -10z m35 -18 c0 -4 14 -13 30 -19 17 -6 30 -16 30 -22 0
-6 -7 -8 -15 -5 -8 4 -15 10 -15 15 0 5 -6 9 -14 9 -7 0 -19 7 -26 15 -9 10
-9 15 -1 15 6 0 11 -4 11 -8z m6276 -90 c-12 -11 -18 7 -10 30 l8 23 4 -23 c2
-13 1 -26 -2 -30z m-6186 28 c0 -5 -5 -10 -11 -10 -5 0 -7 5 -4 10 3 6 8 10
11 10 2 0 4 -4 4 -10z m40 -19 c0 -5 8 -12 18 -14 13 -4 14 -5 1 -6 -8 0 -24
6 -35 14 -17 13 -17 14 -1 15 9 0 17 -4 17 -9z m4216 0 c-3 -5 -30 -11 -61
-13 -31 -3 -63 -12 -73 -21 -12 -11 -22 -13 -32 -7 -12 8 -10 10 8 10 12 0 22
5 22 10 0 6 9 10 20 10 11 0 20 5 20 10 0 6 23 10 51 10 27 0 48 -4 45 -9z
m54 -26 c0 -8 5 -15 12 -15 6 0 8 -3 5 -7 -4 -3 -16 3 -27 15 -17 18 -18 22
-5 22 8 0 15 -7 15 -15z m-4213 -11 c-3 -3 -12 -4 -19 -1 -8 3 -5 6 6 6 11 1
17 -2 13 -5z m6063 -29 c0 -19 -4 -35 -9 -35 -5 0 -9 16 -8 35 3 46 17 46 17
0z m-6030 5 c0 -5 -8 -10 -17 -10 -15 0 -16 2 -3 10 19 12 20 12 20 0z m3950
0 c0 -5 -8 -10 -17 -10 -15 0 -16 2 -3 10 19 12 20 12 20 0z m257 -22 c-3 -8
-6 -5 -6 6 -1 11 2 17 5 13 3 -3 4 -12 1 -19z m-4157 2 c0 -5 8 -10 17 -10 9
0 14 -2 11 -5 -8 -9 -68 7 -62 16 7 12 34 11 34 -1z m3860 0 c0 -5 -3 -10 -7
-10 -5 0 -19 -3 -33 -6 l-25 -6 25 15 c31 18 40 20 40 7z m-3790 -34 c0 -11
-19 -15 -25 -6 -3 5 1 10 9 10 9 0 16 -2 16 -4z m3717 -2 c-3 -3 -12 -4 -19
-1 -8 3 -5 6 6 6 11 1 17 -2 13 -5z m405 -44 c-1 -22 3 -40 8 -40 6 0 10 -12
10 -27 -1 -28 -1 -28 -15 6 -15 33 -21 121 -8 108 3 -4 6 -25 5 -47z m1765 3
c-3 -10 -5 -2 -5 17 0 19 2 27 5 18 2 -10 2 -26 0 -35z m-5857 21 c0 -8 -4
-12 -10 -9 -5 3 -10 10 -10 16 0 5 5 9 10 9 6 0 10 -7 10 -16z m3650 1 c0 -8
-4 -15 -10 -15 -5 0 -7 7 -4 15 4 8 8 15 10 15 2 0 4 -7 4 -15z m-3615 -25 c3
-5 1 -10 -4 -10 -6 0 -11 5 -11 10 0 6 2 10 4 10 3 0 8 -4 11 -10z m3580 0 c3
-5 -1 -10 -9 -10 -9 0 -16 5 -16 10 0 6 4 10 9 10 6 0 13 -4 16 -10z m-3535
-14 c0 -11 -19 -15 -25 -6 -3 5 1 10 9 10 9 0 16 -2 16 -4z m3500 0 c0 -2 -7
-6 -15 -10 -8 -3 -15 -1 -15 4 0 6 7 10 15 10 8 0 15 -2 15 -4z m2264 -33 c-7
-39 -14 -42 -14 -5 0 18 4 32 9 32 5 0 7 -12 5 -27z m-5687 3 c3 -3 3 -10 1
-17 -3 -8 -8 -7 -19 4 -9 8 -24 17 -35 20 -10 2 -4 3 15 1 18 -2 36 -5 38 -8z
m3380 8 c-3 -3 -12 -4 -19 -1 -8 3 -5 6 6 6 11 1 17 -2 13 -5z m-44 -19 c1 -5
-6 -11 -15 -13 -11 -2 -18 3 -18 13 0 17 30 18 33 0z m-3283 -25 c0 -5 -7 -10
-15 -10 -8 0 -15 5 -15 10 0 6 7 10 15 10 8 0 15 -4 15 -10z m3225 -8 c-11 -2
-24 -8 -29 -13 -12 -11 -36 -12 -36 -1 0 10 62 29 75 23 6 -3 1 -7 -10 -9z
m-3180 -12 c-3 -5 -10 -10 -16 -10 -5 0 -9 5 -9 10 0 6 7 10 16 10 8 0 12 -4
9 -10z m5575 -25 c0 -14 -4 -25 -10 -25 -11 0 -14 33 -3 43 11 11 13 8 13 -18z
m-5527 8 c-7 -2 -19 -2 -25 0 -7 3 -2 5 12 5 14 0 19 -2 13 -5z m3057 3 c0 -2
-9 -6 -20 -9 -11 -3 -20 -1 -20 4 0 5 9 9 20 9 11 0 20 -2 20 -4z m770 0 c0
-3 -4 -8 -10 -11 -5 -3 -10 -1 -10 4 0 6 5 11 10 11 6 0 10 -2 10 -4z m-3777
-23 c-7 -2 -21 -2 -30 0 -10 3 -4 5 12 5 17 0 24 -2 18 -5z m2954 1 c-3 -3
-12 -4 -19 -1 -8 3 -5 6 6 6 11 1 17 -2 13 -5z m843 -14 c0 -5 -4 -10 -10 -10
-5 0 -10 5 -10 10 0 6 5 10 10 10 6 0 10 -4 10 -10z m-3750 -10 c12 -8 11 -10
-7 -10 -13 0 -23 5 -23 10 0 13 11 13 30 0z m2860 0 c0 -5 -7 -10 -16 -10 -8
0 -12 5 -9 10 3 6 10 10 16 10 5 0 9 -4 9 -10z m2544 -24 c7 -27 -1 -56 -15
-56 -5 0 -9 -16 -9 -37 0 -20 -3 -34 -6 -31 -8 9 7 148 16 148 4 0 11 -11 14
-24z m-5339 4 c3 -5 18 -10 32 -10 15 0 24 -3 21 -6 -9 -8 -98 7 -98 17 0 12
37 11 45 -1z m2755 0 c0 -5 -11 -10 -25 -10 -14 0 -25 5 -25 10 0 6 11 10 25
10 14 0 25 -4 25 -10z m950 -6 c0 -8 -4 -12 -10 -9 -5 3 -10 10 -10 16 0 5 5
9 10 9 6 0 10 -7 10 -16z m-1010 -8 c0 -2 -11 -6 -25 -8 -14 -3 -25 -1 -25 3
0 5 11 9 25 9 14 0 25 -2 25 -4z m1027 -28 c-3 -8 -6 -5 -6 6 -1 11 2 17 5 13
3 -3 4 -12 1 -19z m-3614 5 c-7 -2 -21 -2 -30 0 -10 3 -4 5 12 5 17 0 24 -2
18 -5z m2520 0 c-7 -2 -21 -2 -30 0 -10 3 -4 5 12 5 17 0 24 -2 18 -5z m-2459
-18 c4 -10 -1 -15 -14 -15 -11 0 -20 7 -20 15 0 8 6 15 14 15 8 0 16 -7 20
-15z m2404 3 c-3 -7 -15 -15 -28 -16 -21 -3 -22 -2 -11 12 16 19 44 21 39 4z
m1181 -53 c0 -5 -4 -3 -9 5 -5 8 -9 22 -9 30 0 16 17 -16 18 -35z m-3529 25
c12 -8 9 -10 -12 -10 -16 0 -28 5 -28 10 0 13 20 13 40 0z m2285 0 c4 -6 -5
-10 -20 -10 -15 0 -24 4 -20 10 3 6 12 10 20 10 8 0 17 -4 20 -10z m-2185 -20
c0 -5 13 -10 29 -10 62 0 121 -13 121 -26 0 -19 -49 -18 -56 1 -4 10 -20 15
-49 15 -24 0 -46 4 -50 9 -3 6 -14 8 -24 6 -10 -2 -24 1 -32 6 -10 6 -2 9 24
9 20 0 37 -4 37 -10z m2126 3 c-10 -11 -66 -11 -66 -1 0 4 17 8 37 8 20 0 33
-3 29 -7z m-110 -20 c-21 -3 -45 -11 -53 -19 -19 -18 -53 -18 -53 0 0 16 35
23 105 23 l40 0 -39 -4z m1464 -59 c0 -7 5 -14 12 -16 6 -2 9 -11 6 -18 -4
-10 -10 -6 -19 15 -8 17 -19 36 -26 43 -7 7 -13 18 -13 24 0 6 9 1 20 -12 11
-13 20 -29 20 -36z m1487 -1 c-3 -10 -5 -4 -5 12 0 17 2 24 5 18 2 -7 2 -21 0
-30z m-4727 17 c11 -7 4 -10 -27 -10 -24 0 -43 5 -43 10 0 13 50 13 70 0z
m1640 0 c11 -7 5 -10 -23 -10 -23 0 -36 4 -32 10 8 13 35 13 55 0z m-1525 -20
c-7 -11 -80 -8 -92 4 -3 3 17 6 46 6 34 0 50 -4 46 -10z m1451 2 c-7 -12 -96
-15 -96 -2 0 5 22 10 51 10 27 0 48 -4 45 -8z m-1316 -21 c0 -5 44 -9 97 -10
117 -2 138 -11 27 -12 -95 -2 -116 0 -129 11 -6 5 -33 10 -60 13 l-50 3 58 2
c31 1 57 -2 57 -7z m1163 2 c-18 -2 -48 -2 -65 0 -18 2 -4 4 32 4 36 0 50 -2
33 -4z m-96 -19 c-7 -7 -159 -6 -166 1 -2 3 35 5 84 5 49 0 85 -3 82 -6z
m3403 -24 c0 -16 -4 -30 -10 -30 -11 0 -14 43 -3 53 11 12 13 8 13 -23z
m-3624 -3 c4 -4 -133 -7 -304 -7 -172 0 -312 3 -312 8 0 9 607 8 616 -1z
m2179 3 c3 -5 1 -10 -4 -10 -6 0 -11 5 -11 10 0 6 2 10 4 10 3 0 8 -4 11 -10z
m45 -66 c0 -8 -4 -12 -10 -9 -5 3 -10 10 -10 16 0 5 5 9 10 9 6 0 10 -7 10
-16z m1371 -27 c-7 -7 -12 -5 -17 7 -4 11 -1 21 7 27 17 11 26 -18 10 -34z
m-21 -54 c0 -24 -3 -33 -9 -25 -7 12 -4 62 5 62 2 0 4 -17 4 -37z m-1315 18
c3 -5 1 -12 -5 -16 -5 -3 -10 1 -10 9 0 18 6 21 15 7z m56 -82 c4 -8 13 -27
20 -44 8 -16 18 -33 23 -36 4 -4 3 -9 -2 -13 -6 -3 -14 4 -17 16 -4 13 -18 37
-31 55 -13 17 -24 35 -24 38 0 11 23 -1 31 -16z m1234 -53 c-4 -36 -11 -63
-16 -60 -12 7 -11 51 1 59 6 3 10 22 10 42 0 20 3 34 6 30 3 -3 3 -35 -1 -71z
m-1149 -102 c3 -13 10 -24 14 -24 4 0 10 -8 14 -17 3 -10 9 -24 12 -30 3 -7 2
-13 -3 -13 -4 0 -17 20 -28 45 -11 25 -22 45 -26 45 -4 0 -9 7 -12 14 -4 10
-1 13 9 9 8 -3 17 -16 20 -29z m1120 -22 c-12 -11 -18 7 -10 30 l8 23 4 -23
c2 -13 1 -26 -2 -30z m-26 -62 c0 -16 -4 -30 -8 -30 -5 0 -7 14 -4 30 2 17 6
30 8 30 2 0 4 -13 4 -30z m-1035 -20 c3 -5 1 -10 -4 -10 -6 0 -11 5 -11 10 0
6 2 10 4 10 3 0 8 -4 11 -10z m25 -41 c0 -6 -4 -7 -10 -4 -5 3 -10 11 -10 16
0 6 5 7 10 4 6 -3 10 -11 10 -16z m987 -26 c-3 -10 -5 -2 -5 17 0 19 2 27 5
18 2 -10 2 -26 0 -35z m-970 -5 c-3 -8 -6 -5 -6 6 -1 11 2 17 5 13 3 -3 4 -12
1 -19z m23 -28 c0 -5 -4 -10 -10 -10 -5 0 -10 5 -10 10 0 6 5 10 10 10 6 0 10
-4 10 -10z m934 -17 c-7 -39 -14 -42 -14 -5 0 18 4 32 9 32 5 0 7 -12 5 -27z
m-874 -85 c0 -9 5 -18 12 -20 6 -2 9 -11 6 -18 -4 -10 -10 -6 -19 15 -8 17
-19 36 -26 43 -7 8 -10 18 -7 23 7 13 33 -20 34 -43z m856 -16 c-12 -12 -18 8
-10 35 l8 28 4 -28 c2 -16 1 -31 -2 -35z m-271 18 c3 -5 1 -10 -4 -10 -6 0
-11 5 -11 10 0 6 2 10 4 10 3 0 8 -4 11 -10z m-551 -75 c-4 -8 -8 -15 -10 -15
-2 0 -4 7 -4 15 0 8 4 15 10 15 5 0 7 -7 4 -15z m806 6 c0 -20 -13 -41 -21
-35 -15 9 -10 44 6 44 8 0 15 -4 15 -9z m-33 -93 c-2 -13 -4 -5 -4 17 -1 22 1
32 4 23 2 -10 2 -28 0 -40z m-727 26 c0 -8 -5 -12 -10 -9 -6 4 -8 11 -5 16 9
14 15 11 15 -7z m24 -50 c10 -37 2 -39 -11 -4 -6 17 -8 30 -3 30 4 0 11 -12
14 -26z m683 -51 c-3 -10 -5 -2 -5 17 0 19 2 27 5 18 2 -10 2 -26 0 -35z
m-660 -5 c-3 -8 -6 -5 -6 6 -1 11 2 17 5 13 3 -3 4 -12 1 -19z m33 -30 c0 -19
-2 -20 -10 -8 -13 19 -13 30 0 30 6 0 10 -10 10 -22z m620 -23 c0 -14 -4 -25
-10 -25 -5 0 -10 11 -10 25 0 14 5 25 10 25 6 0 10 -11 10 -25z m-589 -25 c5
0 9 -7 9 -15 0 -15 -20 -22 -20 -7 0 4 -2 16 -4 27 -2 11 -1 14 1 8 3 -7 9
-13 14 -13z m569 -45 c0 -8 -7 -15 -15 -15 -8 0 -15 7 -15 15 0 8 7 15 15 15
8 0 15 -7 15 -15z m-500 -81 c0 -8 5 -14 10 -14 6 0 10 -4 10 -10 0 -19 -19
-10 -26 12 -3 12 -13 28 -20 35 -7 8 -11 20 -7 29 4 11 9 9 19 -12 8 -14 14
-33 14 -40z m470 -6 c0 -36 -10 -32 -14 6 -2 14 1 26 5 26 5 0 9 -14 9 -32z
m-25 -102 c-4 -36 -11 -66 -16 -66 -12 0 -11 57 1 65 6 3 10 22 10 42 0 20 3
34 6 30 3 -3 3 -35 -1 -71z m-405 50 c0 -3 -4 -8 -10 -11 -5 -3 -10 -1 -10 4
0 6 5 11 10 11 6 0 10 -2 10 -4z m25 -36 c-3 -5 -10 -10 -16 -10 -5 0 -9 5 -9
10 0 6 7 10 16 10 8 0 12 -4 9 -10z m12 -42 c-3 -8 -6 -5 -6 6 -1 11 2 17 5
13 3 -3 4 -12 1 -19z m41 -63 c12 -25 18 -45 12 -45 -5 0 -10 7 -10 15 0 8 -4
15 -8 15 -4 0 -13 14 -19 30 -17 45 -1 35 25 -15z m298 -43 c-12 -12 -18 8
-10 35 l8 28 4 -28 c2 -16 1 -31 -2 -35z m-259 -34 c-3 -7 -5 -2 -5 12 0 14 2
19 5 13 2 -7 2 -19 0 -25z m232 -20 c-1 -31 -1 -31 -8 -8 -5 14 -6 28 -4 33 9
15 13 6 12 -25z m-198 -18 c5 0 9 -7 9 -15 0 -15 -20 -22 -20 -7 0 4 -2 16 -4
27 -2 11 -1 14 1 8 3 -7 9 -13 14 -13z m176 -67 c-3 -10 -5 -2 -5 17 0 19 2
27 5 18 2 -10 2 -26 0 -35z m-152 17 c3 -5 1 -10 -4 -10 -6 0 -11 5 -11 10 0
6 2 10 4 10 3 0 8 -4 11 -10z m33 -42 c7 -7 12 -19 12 -27 0 -9 -6 -7 -20 9
-11 13 -20 25 -20 27 0 7 17 2 28 -9z m108 -27 c-2 -44 -16 -50 -16 -8 0 21 4
37 9 37 4 0 8 -13 7 -29z m-76 -31 c0 -5 -4 -10 -10 -10 -5 0 -10 5 -10 10 0
6 5 10 10 10 6 0 10 -4 10 -10z m60 -50 c0 -16 -4 -30 -10 -30 -11 0 -14 43
-3 53 11 12 13 8 13 -23z m-40 16 c0 -3 -4 -8 -10 -11 -5 -3 -10 -1 -10 4 0 6
5 11 10 11 6 0 10 -2 10 -4z"/>
<path d="M7335 8038 c-34 -20 -47 -37 -55 -74 -19 -81 31 -144 113 -144 123 0
160 160 50 218 -28 15 -82 15 -108 0z"/>
<path d="M6700 7662 c-30 -14 -56 -29 -58 -34 -2 -4 -8 -8 -13 -8 -5 0 -68
-36 -140 -80 -71 -44 -133 -80 -137 -80 -4 0 -25 -14 -46 -30 -22 -17 -46 -30
-53 -30 -7 0 -13 -4 -13 -10 0 -5 -4 -10 -8 -10 -5 0 -34 -15 -66 -32 -67 -38
-67 -38 -169 -100 -43 -27 -82 -48 -87 -48 -6 0 -10 -3 -10 -8 0 -4 -21 -19
-47 -32 -27 -14 -49 -28 -51 -32 -2 -5 -8 -8 -13 -8 -5 0 -49 -24 -97 -54
-117 -73 -145 -125 -105 -193 20 -36 65 -63 103 -63 27 0 98 27 110 41 3 3 10
8 15 10 11 4 177 102 223 131 15 9 43 25 62 35 19 9 40 22 46 28 6 5 28 19 50
30 21 11 41 23 42 28 2 4 7 7 12 7 4 0 105 59 224 130 119 72 220 130 225 130
5 0 11 3 13 8 2 4 24 18 51 32 26 13 47 28 47 32 0 5 5 8 11 8 21 0 58 49 65
84 13 72 -29 124 -113 140 -10 2 -43 -8 -73 -22z"/>
<path d="M4140 7063 c-31 -3 -88 -15 -210 -42 -19 -5 -68 -24 -109 -45 -41
-20 -80 -36 -87 -36 -7 0 -14 -3 -16 -8 -1 -4 -39 -34 -83 -66 -81 -60 -89
-68 -173 -165 -44 -51 -62 -76 -78 -111 -4 -8 -10 -17 -14 -20 -12 -9 -70
-136 -70 -153 0 -9 -4 -19 -10 -22 -5 -3 -10 -16 -10 -29 0 -12 -4 -26 -9 -32
-14 -15 -35 -170 -37 -274 -1 -86 3 -121 41 -295 4 -16 24 -67 46 -111 21 -45
39 -85 39 -90 0 -5 11 -21 25 -36 14 -15 25 -32 25 -38 0 -5 4 -10 9 -10 5 0
13 -10 17 -22 8 -27 189 -205 216 -214 10 -3 18 -10 18 -15 0 -5 4 -9 9 -9 5
0 36 -16 68 -35 69 -41 168 -78 278 -105 145 -36 422 -22 519 26 16 8 36 14
45 14 9 0 41 13 71 28 86 44 102 54 144 90 8 6 20 12 26 12 5 0 10 3 10 8 0 4
22 22 48 41 82 60 244 273 266 351 4 14 11 35 17 48 5 12 13 32 18 45 49 116
62 392 27 542 -22 95 -22 95 -75 207 -23 48 -41 92 -41 98 0 5 -4 10 -8 10 -5
0 -26 25 -47 56 -56 81 -194 216 -233 229 -12 3 -22 10 -22 15 0 4 -11 11 -25
14 -14 4 -25 11 -25 16 0 6 -6 10 -14 10 -8 0 -16 4 -18 8 -4 10 -159 72 -180
72 -8 0 -18 3 -22 7 -4 4 -51 15 -104 25 -92 16 -183 20 -262 11z m759 -678
c-1 -16 -2 -15 -8 5 -5 17 -9 21 -15 12 -4 -6 -14 -12 -23 -12 -12 0 -11 5 7
20 26 22 40 13 39 -25z m-69 -4 c0 -5 -8 -11 -17 -15 -10 -3 -24 -9 -30 -12
-23 -10 -14 11 10 22 29 15 37 16 37 5z m93 -47 c-4 -12 -8 -13 -14 -3 -9 15
-2 32 11 24 5 -3 6 -13 3 -21z m-163 0 c0 -8 -5 -12 -10 -9 -6 4 -8 11 -5 16
9 14 15 11 15 -7z m-30 -10 c0 -12 -34 -33 -52 -34 -10 0 -18 -4 -18 -10 0 -5
-6 -10 -14 -10 -8 0 -16 -6 -19 -12 -4 -10 -7 -10 -18 0 -11 10 -10 12 3 12 9
0 18 3 20 8 3 7 77 49 91 51 4 1 7 -2 7 -5z m220 -40 c0 -21 -4 -33 -10 -29
-5 3 -10 19 -10 36 0 16 5 29 10 29 6 0 10 -16 10 -36z m-350 -40 c0 -12 -34
-33 -52 -34 -10 0 -18 -4 -18 -10 0 -5 -7 -10 -15 -10 -8 0 -15 -4 -15 -10 0
-5 -7 -10 -15 -10 -8 0 -15 5 -15 10 0 6 7 10 15 10 8 0 15 4 15 9 0 5 12 12
26 15 15 4 33 14 41 21 15 15 33 20 33 9z m370 -44 c0 -22 -4 -40 -10 -40 -5
0 -10 18 -10 40 0 22 5 40 10 40 6 0 10 -18 10 -40z m-505 -51 c-3 -4 -12 -6
-20 -2 -8 3 -15 0 -15 -6 0 -6 -7 -11 -17 -11 -13 0 -12 4 6 19 21 19 57 19
46 0z m512 -121 c-2 -24 -4 -7 -4 37 0 44 2 63 4 43 2 -21 2 -57 0 -80z m-587
92 c0 -5 -4 -10 -10 -10 -5 0 -10 5 -10 10 0 6 5 10 10 10 6 0 10 -4 10 -10z
m-30 -14 c0 -3 -4 -8 -10 -11 -5 -3 -10 -1 -10 4 0 6 5 11 10 11 6 0 10 -2 10
-4z m-36 -31 c-4 -8 -8 -15 -10 -15 -2 0 -4 7 -4 15 0 8 4 15 10 15 5 0 7 -7
4 -15z m-34 -13 c0 -5 -21 -20 -47 -33 -27 -13 -51 -28 -55 -34 -5 -6 -12 -5
-20 3 -9 9 -9 12 5 12 9 0 17 5 17 10 0 6 7 10 15 10 8 0 29 9 47 20 38 23 38
23 38 12z m-142 -89 c-10 -2 -18 -9 -18 -14 0 -5 -9 -9 -20 -9 -11 0 -20 -4
-20 -8 0 -4 -13 -13 -30 -19 -16 -6 -30 -7 -30 -2 0 5 6 9 14 9 8 0 16 3 18 8
5 10 70 41 88 40 10 0 9 -2 -2 -5z m822 -48 c0 -30 -4 -55 -10 -55 -11 0 -14
93 -3 103 12 12 13 8 13 -48z m-949 -30 c-1 -6 -5 -10 -10 -10 -5 0 -13 -3
-17 -7 -4 -5 -14 -8 -22 -8 -11 0 -8 6 8 20 24 21 42 23 41 5z m-68 -32 c4 -3
-5 -12 -19 -20 -31 -16 -34 -16 -34 -3 0 6 7 10 15 10 8 0 15 5 15 10 0 11 13
13 23 3z m993 -40 c-11 -11 -19 6 -11 24 8 17 8 17 12 0 3 -10 2 -21 -1 -24z
m-1062 -8 c-4 -8 -8 -15 -10 -15 -2 0 -4 7 -4 15 0 8 4 15 10 15 5 0 7 -7 4
-15z m-34 -19 c0 -8 -13 -17 -30 -21 -16 -4 -30 -11 -30 -16 0 -5 -7 -9 -15
-9 -26 0 -15 14 28 37 23 12 43 22 45 22 1 1 2 -5 2 -13z m1075 -6 c3 -5 3
-15 -1 -21 -6 -11 -23 6 -24 24 0 10 18 9 25 -3z m-1175 -50 c0 -5 -4 -10 -9
-10 -6 0 -13 5 -16 10 -3 6 1 10 9 10 9 0 16 -4 16 -10z m1147 -12 c-3 -8 -6
-5 -6 6 -1 11 2 17 5 13 3 -3 4 -12 1 -19z m-1180 -14 c-3 -3 -12 -4 -19 -1
-8 3 -5 6 6 6 11 1 17 -2 13 -5z m-32 -14 c3 -5 -1 -10 -10 -10 -9 0 -13 5
-10 10 3 6 8 10 10 10 2 0 7 -4 10 -10z m1205 0 c0 -5 -4 -10 -10 -10 -5 0
-10 5 -10 10 0 6 5 10 10 10 6 0 10 -4 10 -10z m-1240 -20 c0 -5 -7 -10 -15
-10 -8 0 -15 -5 -15 -12 0 -6 -3 -8 -6 -5 -8 8 14 37 27 37 5 0 9 -4 9 -10z
m-3 -62 c-3 -8 -6 -5 -6 6 -1 11 2 17 5 13 3 -3 4 -12 1 -19z m1197 10 c-15
-24 -39 -48 -47 -48 -5 0 -1 7 7 16 9 8 16 22 16 30 0 8 7 14 16 14 9 0 12 -5
8 -12z m-1153 -60 c7 -14 6 -16 -6 -12 -8 4 -15 10 -15 14 0 5 -3 17 -6 27 -5
15 -4 16 5 3 7 -8 16 -23 22 -32z m86 -77 c21 -30 5 -22 -33 15 -34 33 -35 35
-9 19 17 -10 35 -26 42 -34z m967 24 c-4 -8 -13 -15 -22 -15 -13 0 -12 3 4 15
24 18 25 18 18 0z m-37 -31 c-3 -3 -12 -4 -19 -1 -8 3 -5 6 6 6 11 1 17 -2 13
-5z m-857 -45 c3 -3 12 -9 20 -13 8 -3 2 -4 -15 0 -16 3 -31 10 -33 15 -2 5
-10 9 -18 9 -9 0 -12 4 -9 10 5 9 41 -5 55 -21z m770 -13 c0 -9 -30 -14 -35
-6 -4 6 3 10 14 10 12 0 21 -2 21 -4z m-703 -22 c-3 -3 -12 -4 -19 -1 -8 3 -5
6 6 6 11 1 17 -2 13 -5z m648 -5 c-11 -5 -33 -18 -50 -28 -16 -11 -43 -20 -60
-20 -23 -1 -26 2 -15 9 8 5 24 10 35 10 11 0 31 9 45 20 14 11 34 19 45 19
l20 0 -20 -10z m-598 -15 c15 -14 14 -16 -7 -12 -13 1 -25 9 -28 16 -5 17 16
15 35 -4z m53 -24 c12 -8 9 -10 -13 -10 -16 0 -26 4 -22 10 8 12 16 12 35 0z
m110 -19 c0 -10 -78 -7 -88 3 -3 3 16 6 41 6 26 0 47 -4 47 -9z m289 5 c-10
-10 -59 -14 -59 -5 0 5 14 9 32 9 17 0 29 -2 27 -4z m-116 -23 c-29 -2 -77 -2
-105 0 -29 2 -6 3 52 3 58 0 81 -1 53 -3z"/>
<path d="M2715 5294 c-27 -14 -63 -33 -80 -43 -16 -10 -55 -31 -85 -48 -106
-59 -120 -68 -120 -75 0 -5 -4 -8 -10 -8 -5 0 -68 -36 -140 -80 -72 -44 -135
-80 -140 -80 -6 0 -10 -4 -10 -10 0 -5 -6 -10 -12 -10 -7 0 -41 -18 -76 -40
-34 -22 -65 -40 -67 -40 -2 0 -63 -36 -134 -80 -72 -44 -135 -80 -141 -80 -5
0 -10 -4 -10 -10 0 -5 -6 -10 -13 -10 -8 0 -30 -16 -50 -35 -33 -32 -37 -42
-37 -86 0 -41 5 -54 31 -82 27 -28 37 -32 82 -32 43 0 62 7 110 38 31 20 59
37 62 37 2 0 33 18 67 40 35 22 69 40 76 40 6 0 12 4 12 9 0 5 8 11 18 15 9 3
31 15 47 26 17 11 38 23 48 26 9 4 17 10 17 15 0 5 5 9 11 9 6 0 69 36 141 80
71 44 136 80 144 80 8 0 14 5 14 10 0 6 7 10 15 10 8 0 15 4 15 8 0 4 22 19
50 33 27 13 50 27 50 32 0 4 5 7 11 7 16 0 241 140 261 163 50 56 27 152 -45
185 -38 17 -54 15 -112 -14z"/>
<path d="M1024 4291 c-39 -24 -68 -82 -59 -120 3 -16 19 -43 35 -61 26 -30 35
-33 85 -33 50 0 58 3 85 33 25 27 30 43 30 82 0 26 -4 48 -9 48 -5 0 -12 8
-15 18 -7 21 -66 52 -99 52 -12 0 -36 -9 -53 -19z"/>
<path d="M459 3955 c-36 -19 -59 -58 -59 -98 0 -73 46 -117 122 -117 37 0 49
6 76 33 26 27 32 41 32 76 0 24 -8 56 -17 72 -27 46 -101 63 -154 34z"/>
</g>
</svg>
